solid OpenSCAD_Model
  facet normal 1 0 0
    outer loop
      vertex 3 0 -8
      vertex 3 3 0
      vertex 3 0 0
    endloop
  endfacet
  facet normal 1 0 0
    outer loop
      vertex 3 3 0
      vertex 3 0 -8
      vertex 3 3 -11
    endloop
  endfacet
  facet normal 1 0 0
    outer loop
      vertex 3 0 -8
      vertex 3 -0.964417 -11
      vertex 3 3 -11
    endloop
  endfacet
  facet normal 1 0 0
    outer loop
      vertex 3 -3.5 -8.46442
      vertex 3 0 -8
      vertex 3 -3.5 -8
    endloop
  endfacet
  facet normal 1 0 0
    outer loop
      vertex 3 0 -8
      vertex 3 -3.5 -8.46442
      vertex 3 -0.964417 -11
    endloop
  endfacet
  facet normal 0 0 1
    outer loop
      vertex 3 3 0
      vertex 0 2.00818 0
      vertex 3 0 0
    endloop
  endfacet
  facet normal -0 0 1
    outer loop
      vertex -16 3 0
      vertex 0 2.00818 0
      vertex 3 3 0
    endloop
  endfacet
  facet normal 0 0 1
    outer loop
      vertex 0 2.00818 0
      vertex -16 3 0
      vertex -16 2.00818 0
    endloop
  endfacet
  facet normal 0 0 1
    outer loop
      vertex 3 0 0
      vertex 0 2.00818 0
      vertex 0 0 0
    endloop
  endfacet
  facet normal 0 0 -1
    outer loop
      vertex -1.4731 -0.964417 -11
      vertex -16 -0.964417 -11
      vertex -1.4731 0 -11
    endloop
  endfacet
  facet normal 0 0 -1
    outer loop
      vertex -1.34156 0 -11
      vertex 3 -0.964417 -11
      vertex -1.34156 -0.964417 -11
    endloop
  endfacet
  facet normal 0 0 -1
    outer loop
      vertex 3 -0.964417 -11
      vertex -1.34156 0 -11
      vertex 3 3 -11
    endloop
  endfacet
  facet normal 0 0 -1
    outer loop
      vertex -1.4731 0 -11
      vertex 3 3 -11
      vertex -1.34156 0 -11
    endloop
  endfacet
  facet normal 0 0 -1
    outer loop
      vertex -16 3 -11
      vertex -1.4731 0 -11
      vertex -16 -0.964417 -11
    endloop
  endfacet
  facet normal 0 0 -1
    outer loop
      vertex -1.4731 0 -11
      vertex -16 3 -11
      vertex 3 3 -11
    endloop
  endfacet
  facet normal -1 0 0
    outer loop
      vertex -16 0 -8
      vertex -16 3 0
      vertex -16 3 -11
    endloop
  endfacet
  facet normal -1 0 0
    outer loop
      vertex -16 0 -2.00818
      vertex -16 3 0
      vertex -16 0 -8
    endloop
  endfacet
  facet normal -1 0 0
    outer loop
      vertex -16 -0.964417 -11
      vertex -16 0 -8
      vertex -16 3 -11
    endloop
  endfacet
  facet normal -1 0 0
    outer loop
      vertex -16 -3.5 -8.46442
      vertex -16 0 -8
      vertex -16 -0.964417 -11
    endloop
  endfacet
  facet normal -1 -0 0
    outer loop
      vertex -16 0 -8
      vertex -16 -3.5 -8.46442
      vertex -16 -3.5 -8
    endloop
  endfacet
  facet normal -1 -0 0
    outer loop
      vertex -16 3 0
      vertex -16 0 -2.00818
      vertex -16 2.00818 0
    endloop
  endfacet
  facet normal 0 1 -0
    outer loop
      vertex 3 3 -11
      vertex -16 3 0
      vertex 3 3 0
    endloop
  endfacet
  facet normal 0 1 0
    outer loop
      vertex -16 3 0
      vertex 3 3 -11
      vertex -16 3 -11
    endloop
  endfacet
  facet normal 0 -1 0
    outer loop
      vertex 1.54362 0 -0.420987
      vertex 3 0 0
      vertex 0 0 0
    endloop
  endfacet
  facet normal 0 -1 0
    outer loop
      vertex 3 0 -8
      vertex 1.54362 0 -0.420987
      vertex -0.523381 0 -8
    endloop
  endfacet
  facet normal 0 -1 0
    outer loop
      vertex 1.54362 0 -0.420987
      vertex 3 0 -8
      vertex 3 0 0
    endloop
  endfacet
  facet normal 0 1 0
    outer loop
      vertex 0 0 0
      vertex 0 0 -2.00818
      vertex -0.547686 0 -2.00818
    endloop
  endfacet
  facet normal 0 -1 0
    outer loop
      vertex -2.18182 0 -8
      vertex -16 0 -2.00818
      vertex -16 0 -8
    endloop
  endfacet
  facet normal 0 -1 0
    outer loop
      vertex -16 0 -2.00818
      vertex -2.18182 0 -8
      vertex -0.547686 0 -2.00818
    endloop
  endfacet
  facet normal 0 1 0
    outer loop
      vertex -1.34156 0 -11
      vertex -1.35067 0 -11.0334
      vertex -1.4731 0 -11
    endloop
  endfacet
  facet normal 0 -0.707107 0.707107
    outer loop
      vertex -0.547686 0 -2.00818
      vertex -16 2.00818 0
      vertex -16 0 -2.00818
    endloop
  endfacet
  facet normal 0 -0.707107 0.707107
    outer loop
      vertex -16 2.00818 0
      vertex -0.547686 0 -2.00818
      vertex 0 2.00818 0
    endloop
  endfacet
  facet normal 0 -0.707107 0.707107
    outer loop
      vertex 0 2.00818 0
      vertex -0.547686 0 -2.00818
      vertex 0 0 -2.00818
    endloop
  endfacet
  facet normal -1 -0 0
    outer loop
      vertex 0 2.00818 0
      vertex 0 0 -2.00818
      vertex 0 0 0
    endloop
  endfacet
  facet normal 1 -0 0
    outer loop
      vertex -10 -16 3
      vertex -10 -10 0
      vertex -10 -10 3
    endloop
  endfacet
  facet normal 1 0 0
    outer loop
      vertex -10 -10 0
      vertex -10 -16 3
      vertex -10 -16 0
    endloop
  endfacet
  facet normal -0 0 1
    outer loop
      vertex -16 -10 3
      vertex -10 -16 3
      vertex -10 -10 3
    endloop
  endfacet
  facet normal 0 0 1
    outer loop
      vertex -10 -16 3
      vertex -16 -10 3
      vertex -16 -16 3
    endloop
  endfacet
  facet normal 0 0 -1
    outer loop
      vertex -16 -16 0
      vertex -10 -10 0
      vertex -10 -16 0
    endloop
  endfacet
  facet normal -0 0 -1
    outer loop
      vertex -10 -10 0
      vertex -16 -16 0
      vertex -16 -10 0
    endloop
  endfacet
  facet normal -1 0 0
    outer loop
      vertex -16 -16 0
      vertex -16 -10 3
      vertex -16 -10 0
    endloop
  endfacet
  facet normal -1 -0 0
    outer loop
      vertex -16 -10 3
      vertex -16 -16 0
      vertex -16 -16 3
    endloop
  endfacet
  facet normal 0 1 -0
    outer loop
      vertex -10 -10 0
      vertex -16 -10 3
      vertex -10 -10 3
    endloop
  endfacet
  facet normal 0 1 0
    outer loop
      vertex -16 -10 3
      vertex -10 -10 0
      vertex -16 -10 0
    endloop
  endfacet
  facet normal 0 -1 0
    outer loop
      vertex -16 -16 0
      vertex -10 -16 3
      vertex -16 -16 3
    endloop
  endfacet
  facet normal 0 -1 -0
    outer loop
      vertex -10 -16 3
      vertex -16 -16 0
      vertex -10 -16 0
    endloop
  endfacet
  facet normal -0 0 1
    outer loop
      vertex -16 0 -8
      vertex -2.18182 -3.5 -8
      vertex -2.18182 0 -8
    endloop
  endfacet
  facet normal 0 0 1
    outer loop
      vertex -2.18182 -3.5 -8
      vertex -16 0 -8
      vertex -16 -3.5 -8
    endloop
  endfacet
  facet normal -0 0 1
    outer loop
      vertex -0.523381 0 -8
      vertex 3 -3.5 -8
      vertex 3 0 -8
    endloop
  endfacet
  facet normal 0 0 1
    outer loop
      vertex 3 -3.5 -8
      vertex -0.523381 0 -8
      vertex -0.523381 -3.5 -8
    endloop
  endfacet
  facet normal 0 -1 0
    outer loop
      vertex -2.30848 -3.5 -8.46442
      vertex -16 -3.5 -8
      vertex -16 -3.5 -8.46442
    endloop
  endfacet
  facet normal 0 -1 0
    outer loop
      vertex -16 -3.5 -8
      vertex -2.30848 -3.5 -8.46442
      vertex -2.18182 -3.5 -8
    endloop
  endfacet
  facet normal 0 -1 0
    outer loop
      vertex 3 -3.5 -8.46442
      vertex -0.523381 -3.5 -8
      vertex -0.65004 -3.5 -8.46442
    endloop
  endfacet
  facet normal 0 -1 0
    outer loop
      vertex -0.523381 -3.5 -8
      vertex 3 -3.5 -8.46442
      vertex 3 -3.5 -8
    endloop
  endfacet
  facet normal 0 -0.707105 -0.707108
    outer loop
      vertex -16 -3.5 -8.46442
      vertex -2.89429 -1.35201 -10.6124
      vertex -2.30848 -3.5 -8.46442
    endloop
  endfacet
  facet normal 4.02421e-07 -0.707106 -0.707107
    outer loop
      vertex -16 -0.964417 -11
      vertex -2.89429 -1.35201 -10.6124
      vertex -16 -3.5 -8.46442
    endloop
  endfacet
  facet normal 0 -0.707113 -0.7071
    outer loop
      vertex -2.89429 -1.35201 -10.6124
      vertex -16 -0.964417 -11
      vertex -1.4731 -0.964417 -11
    endloop
  endfacet
  facet normal -0 -0.707106 -0.707107
    outer loop
      vertex 3 -0.964417 -11
      vertex -0.65004 -3.5 -8.46442
      vertex -1.34156 -0.964417 -11
    endloop
  endfacet
  facet normal 0 -0.707106 -0.707107
    outer loop
      vertex -0.65004 -3.5 -8.46442
      vertex 3 -0.964417 -11
      vertex 3 -3.5 -8.46442
    endloop
  endfacet
  facet normal 0.964764 0 -0.263117
    outer loop
      vertex 1.54362 0 -0.420987
      vertex -0.523381 -3.5 -8
      vertex -0.523381 0 -8
    endloop
  endfacet
  facet normal 0.964764 4.49165e-07 -0.263115
    outer loop
      vertex -0.523381 -3.5 -8
      vertex -0.482382 -4 -7.84967
      vertex -0.65004 -3.5 -8.46442
    endloop
  endfacet
  facet normal 0.964764 -6.84828e-08 -0.263117
    outer loop
      vertex 1.54362 0 -0.420987
      vertex -0.482382 -4 -7.84967
      vertex -0.523381 -3.5 -8
    endloop
  endfacet
  facet normal 0.964764 0 -0.263117
    outer loop
      vertex 1.54362 0 -0.420987
      vertex -0.482382 -10 -7.84967
      vertex -0.482382 -4 -7.84967
    endloop
  endfacet
  facet normal 0.964764 1.60062e-07 -0.263117
    outer loop
      vertex -1.35067 -14 -11.0334
      vertex -0.482382 -10 -7.84967
      vertex 1.54362 -14 -0.420987
    endloop
  endfacet
  facet normal 0.964764 0 -0.263117
    outer loop
      vertex 1.54362 -14 -0.420987
      vertex -0.482382 -10 -7.84967
      vertex 1.54362 0 -0.420987
    endloop
  endfacet
  facet normal 0.964757 0 -0.263142
    outer loop
      vertex -1.34156 -0.964417 -11
      vertex -1.35067 0 -11.0334
      vertex -1.34156 0 -11
    endloop
  endfacet
  facet normal 0.964764 -1.97584e-06 -0.263117
    outer loop
      vertex -0.710191 -4 -8.68497
      vertex -0.65004 -3.5 -8.46442
      vertex -0.482382 -4 -7.84967
    endloop
  endfacet
  facet normal 0.964764 -1.55068e-06 -0.263118
    outer loop
      vertex -0.710191 -4 -8.68497
      vertex -1.34156 -0.964417 -11
      vertex -0.65004 -3.5 -8.46442
    endloop
  endfacet
  facet normal 0.964764 0 -0.263116
    outer loop
      vertex -0.710191 -10 -8.68497
      vertex -1.34156 -0.964417 -11
      vertex -0.710191 -4 -8.68497
    endloop
  endfacet
  facet normal 0.964757 0 -0.263142
    outer loop
      vertex -1.34156 -0.964417 -11
      vertex -1.35067 -14 -11.0334
      vertex -1.35067 0 -11.0334
    endloop
  endfacet
  facet normal 0.964764 -6.95951e-08 -0.263117
    outer loop
      vertex -0.710191 -10 -8.68497
      vertex -1.35067 -14 -11.0334
      vertex -1.34156 -0.964417 -11
    endloop
  endfacet
  facet normal 0.964764 3.9881e-07 -0.263117
    outer loop
      vertex -0.482382 -10 -7.84967
      vertex -1.35067 -14 -11.0334
      vertex -0.710191 -10 -8.68497
    endloop
  endfacet
  facet normal 0.263117 0 0.964764
    outer loop
      vertex 0 0 0
      vertex 1.54362 -14 -0.420987
      vertex 1.54362 0 -0.420987
    endloop
  endfacet
  facet normal 0.263117 0 0.964764
    outer loop
      vertex 1.54362 -14 -0.420987
      vertex 0 0 0
      vertex 0 -14 0
    endloop
  endfacet
  facet normal -0.263191 0 -0.964744
    outer loop
      vertex -1.35067 -14 -11.0334
      vertex -1.4731 -0.964417 -11
      vertex -1.35067 0 -11.0334
    endloop
  endfacet
  facet normal -0.263125 -0 -0.964762
    outer loop
      vertex -2.89429 -1.35201 -10.6124
      vertex -1.35067 -14 -11.0334
      vertex -2.89429 -14 -10.6124
    endloop
  endfacet
  facet normal -0.263119 7.20865e-07 -0.964763
    outer loop
      vertex -1.35067 -14 -11.0334
      vertex -2.89429 -1.35201 -10.6124
      vertex -1.4731 -0.964417 -11
    endloop
  endfacet
  facet normal -0.263191 0 -0.964744
    outer loop
      vertex -1.35067 0 -11.0334
      vertex -1.4731 -0.964417 -11
      vertex -1.4731 0 -11
    endloop
  endfacet
  facet normal -0.964764 -2.50588e-07 0.263117
    outer loop
      vertex -2.30848 -3.5 -8.46442
      vertex -2.89429 -14 -10.6124
      vertex -2.18182 -3.5 -8
    endloop
  endfacet
  facet normal -0.964764 0 0.263116
    outer loop
      vertex -2.89429 -14 -10.6124
      vertex -2.30848 -3.5 -8.46442
      vertex -2.89429 -1.35201 -10.6124
    endloop
  endfacet
  facet normal -0.964764 0 0.263118
    outer loop
      vertex -2.18182 -3.5 -8
      vertex -0.547686 0 -2.00818
      vertex -2.18182 0 -8
    endloop
  endfacet
  facet normal -0.964764 -7.55986e-09 0.263118
    outer loop
      vertex 0 -14 0
      vertex -0.547686 0 -2.00818
      vertex -2.18182 -3.5 -8
    endloop
  endfacet
  facet normal -0.964764 -2.30026e-07 0.263117
    outer loop
      vertex 0 -14 0
      vertex -2.18182 -3.5 -8
      vertex -2.89429 -14 -10.6124
    endloop
  endfacet
  facet normal -0.964764 0 0.263118
    outer loop
      vertex -0.547686 0 -2.00818
      vertex 0 -14 0
      vertex 0 0 0
    endloop
  endfacet
  facet normal 0 -1 0
    outer loop
      vertex -2.89429 -14 -10.6124
      vertex 1.54362 -14 -0.420987
      vertex 0 -14 0
    endloop
  endfacet
  facet normal 0 -1 0
    outer loop
      vertex 1.54362 -14 -0.420987
      vertex -2.89429 -14 -10.6124
      vertex -1.35067 -14 -11.0334
    endloop
  endfacet
  facet normal 0 -1 0
    outer loop
      vertex -0.710191 -10 -8.68497
      vertex 1.25418 -10 -8.32328
      vertex -0.482382 -10 -7.84967
    endloop
  endfacet
  facet normal 0 -1 0
    outer loop
      vertex 1.25418 -10 -8.32328
      vertex -0.710191 -10 -8.68497
      vertex -1.33488 -10 -10.9755
    endloop
  endfacet
  facet normal 0.263119 0 0.964764
    outer loop
      vertex -0.482382 -4 -7.84967
      vertex 1.25418 -10 -8.32328
      vertex 1.25418 -4 -8.32328
    endloop
  endfacet
  facet normal 0.263119 0 0.964764
    outer loop
      vertex 1.25418 -10 -8.32328
      vertex -0.482382 -4 -7.84967
      vertex -0.482382 -10 -7.84967
    endloop
  endfacet
  facet normal 0 1 0
    outer loop
      vertex 1.25418 -4 -8.32328
      vertex -0.710191 -4 -8.68497
      vertex -0.482382 -4 -7.84967
    endloop
  endfacet
  facet normal -0 1 0
    outer loop
      vertex -0.710191 -4 -8.68497
      vertex 1.25418 -4 -8.32328
      vertex -1.33488 -4 -10.9755
    endloop
  endfacet
  facet normal 0.715576 0 -0.698535
    outer loop
      vertex 1.25418 -10 -8.32328
      vertex -1.33488 -4 -10.9755
      vertex 1.25418 -4 -8.32328
    endloop
  endfacet
  facet normal 0.715576 0 -0.698535
    outer loop
      vertex -1.33488 -4 -10.9755
      vertex 1.25418 -10 -8.32328
      vertex -1.33488 -10 -10.9755
    endloop
  endfacet
  facet normal -0.964764 0 0.263117
    outer loop
      vertex -1.33488 -10 -10.9755
      vertex -0.710191 -4 -8.68497
      vertex -1.33488 -4 -10.9755
    endloop
  endfacet
  facet normal -0.964764 0 0.263117
    outer loop
      vertex -0.710191 -4 -8.68497
      vertex -1.33488 -10 -10.9755
      vertex -0.710191 -10 -8.68497
    endloop
  endfacet
  facet normal 1 -0 0
    outer loop
      vertex 6.4 -14 0
      vertex 6.4 0 -11
      vertex 6.4 0 0
    endloop
  endfacet
  facet normal 1 0 0
    outer loop
      vertex 6.4 0 -11
      vertex 6.4 -14 0
      vertex 6.4 -14 -11
    endloop
  endfacet
  facet normal -0 0 1
    outer loop
      vertex 3.4 0 0
      vertex 6.4 -14 0
      vertex 6.4 0 0
    endloop
  endfacet
  facet normal 0 0 1
    outer loop
      vertex 6.4 -14 0
      vertex 3.4 0 0
      vertex 3.4 -14 0
    endloop
  endfacet
  facet normal 0 0 -1
    outer loop
      vertex 3.4 -14 -11
      vertex 6.4 0 -11
      vertex 6.4 -14 -11
    endloop
  endfacet
  facet normal -0 0 -1
    outer loop
      vertex 6.4 0 -11
      vertex 3.4 -14 -11
      vertex 3.4 0 -11
    endloop
  endfacet
  facet normal -1 0 0
    outer loop
      vertex 3.4 -3.5 -4.06
      vertex 3.4 0 -11
      vertex 3.4 -3.5 -8.1
    endloop
  endfacet
  facet normal -1 0 0
    outer loop
      vertex 3.4 0 -11
      vertex 3.4 -10.5 -8.1
      vertex 3.4 -3.5 -8.1
    endloop
  endfacet
  facet normal -1 -0 0
    outer loop
      vertex 3.4 -10.5 -8.1
      vertex 3.4 -14 -11
      vertex 3.4 -10.5 -4.06
    endloop
  endfacet
  facet normal -1 0 0
    outer loop
      vertex 3.4 -14 -11
      vertex 3.4 -10.5 -8.1
      vertex 3.4 0 -11
    endloop
  endfacet
  facet normal -1 0 0
    outer loop
      vertex 3.4 0 -11
      vertex 3.4 -3.5 -4.06
      vertex 3.4 0 0
    endloop
  endfacet
  facet normal -1 0 0
    outer loop
      vertex 3.4 -10.5 -4.06
      vertex 3.4 0 0
      vertex 3.4 -3.5 -4.06
    endloop
  endfacet
  facet normal -1 0 0
    outer loop
      vertex 3.4 -10.5 -4.06
      vertex 3.4 -14 0
      vertex 3.4 0 0
    endloop
  endfacet
  facet normal -1 0 0
    outer loop
      vertex 3.4 -14 0
      vertex 3.4 -10.5 -4.06
      vertex 3.4 -14 -11
    endloop
  endfacet
  facet normal 0 1 -0
    outer loop
      vertex 6.4 0 -11
      vertex 3.4 0 0
      vertex 6.4 0 0
    endloop
  endfacet
  facet normal 0 1 0
    outer loop
      vertex 3.4 0 0
      vertex 6.4 0 -11
      vertex 3.4 0 -11
    endloop
  endfacet
  facet normal 0 -1 0
    outer loop
      vertex 3.4 -14 -11
      vertex 6.4 -14 0
      vertex 3.4 -14 0
    endloop
  endfacet
  facet normal 0 -1 -0
    outer loop
      vertex 6.4 -14 0
      vertex 3.4 -14 -11
      vertex 6.4 -14 -11
    endloop
  endfacet
  facet normal -1 0 0
    outer loop
      vertex 5.69 -10.5 -8.1
      vertex 5.69 -3.5 -4.06
      vertex 5.69 -3.5 -8.1
    endloop
  endfacet
  facet normal -1 -0 0
    outer loop
      vertex 5.69 -3.5 -4.06
      vertex 5.69 -10.5 -8.1
      vertex 5.69 -10.5 -4.06
    endloop
  endfacet
  facet normal 0 0 -1
    outer loop
      vertex 3.4 -10.5 -4.06
      vertex 5.69 -3.5 -4.06
      vertex 5.69 -10.5 -4.06
    endloop
  endfacet
  facet normal -0 0 -1
    outer loop
      vertex 5.69 -3.5 -4.06
      vertex 3.4 -10.5 -4.06
      vertex 3.4 -3.5 -4.06
    endloop
  endfacet
  facet normal -0 0 1
    outer loop
      vertex 3.4 -3.5 -8.1
      vertex 5.69 -10.5 -8.1
      vertex 5.69 -3.5 -8.1
    endloop
  endfacet
  facet normal 0 0 1
    outer loop
      vertex 5.69 -10.5 -8.1
      vertex 3.4 -3.5 -8.1
      vertex 3.4 -10.5 -8.1
    endloop
  endfacet
  facet normal 0 -1 0
    outer loop
      vertex 3.4 -3.5 -8.1
      vertex 5.69 -3.5 -4.06
      vertex 3.4 -3.5 -4.06
    endloop
  endfacet
  facet normal 0 -1 -0
    outer loop
      vertex 5.69 -3.5 -4.06
      vertex 3.4 -3.5 -8.1
      vertex 5.69 -3.5 -8.1
    endloop
  endfacet
  facet normal 0 1 -0
    outer loop
      vertex 5.69 -10.5 -8.1
      vertex 3.4 -10.5 -4.06
      vertex 5.69 -10.5 -4.06
    endloop
  endfacet
  facet normal 0 1 0
    outer loop
      vertex 3.4 -10.5 -4.06
      vertex 5.69 -10.5 -8.1
      vertex 3.4 -10.5 -8.1
    endloop
  endfacet
endsolid OpenSCAD_Model
