solid OpenSCAD_Model
  facet normal 1 -0 0
    outer loop
      vertex 3 -16 0
      vertex 3 3 -11
      vertex 3 3 0
    endloop
  endfacet
  facet normal 1 0 0
    outer loop
      vertex 3 3 -11
      vertex 3 -16 0
      vertex 3 -16 -11
    endloop
  endfacet
  facet normal 0 0 1
    outer loop
      vertex 0 -8 0
      vertex 3 3 0
      vertex 0 0 0
    endloop
  endfacet
  facet normal 0 0 1
    outer loop
      vertex 3 3 0
      vertex -8 0 0
      vertex 0 0 0
    endloop
  endfacet
  facet normal -0 0 1
    outer loop
      vertex -16 3 0
      vertex -8 0 0
      vertex 3 3 0
    endloop
  endfacet
  facet normal 0 0 1
    outer loop
      vertex -8 0 0
      vertex -16 0 0
      vertex 0 -16 0
    endloop
  endfacet
  facet normal -0 0 1
    outer loop
      vertex -170 -8 0
      vertex 0 -16 0
      vertex -16 0 0
    endloop
  endfacet
  facet normal 0 0 1
    outer loop
      vertex -170 -8 0
      vertex -16 0 0
      vertex -162 0 0
    endloop
  endfacet
  facet normal 0 0 1
    outer loop
      vertex 0 -16 0
      vertex -170 -8 0
      vertex -170 -242 0
    endloop
  endfacet
  facet normal 0 0 1
    outer loop
      vertex -170 -8 0
      vertex -162 0 0
      vertex -163.044 -0.0684414 0
    endloop
  endfacet
  facet normal 0 0 1
    outer loop
      vertex 0 -16 0
      vertex -170 -242 0
      vertex -8 -250 0
    endloop
  endfacet
  facet normal 0 0 1
    outer loop
      vertex -170 -8 0
      vertex -163.044 -0.0684414 0
      vertex -164.071 -0.272593 0
    endloop
  endfacet
  facet normal 0 0 1
    outer loop
      vertex -8 -250 0
      vertex -170 -242 0
      vertex -162 -250 0
    endloop
  endfacet
  facet normal 0 0 1
    outer loop
      vertex -170 -8 0
      vertex -164.071 -0.272593 0
      vertex -165.061 -0.608964 0
    endloop
  endfacet
  facet normal 0 0 1
    outer loop
      vertex -162 -250 0
      vertex -170 -242 0
      vertex -163.044 -249.932 0
    endloop
  endfacet
  facet normal 0 0 1
    outer loop
      vertex -170 -8 0
      vertex -165.061 -0.608964 0
      vertex -166 -1.0718 0
    endloop
  endfacet
  facet normal 0 0 1
    outer loop
      vertex -163.044 -249.932 0
      vertex -170 -242 0
      vertex -164.071 -249.727 0
    endloop
  endfacet
  facet normal 0 0 1
    outer loop
      vertex -170 -8 0
      vertex -166 -1.0718 0
      vertex -166.87 -1.65317 0
    endloop
  endfacet
  facet normal 0 0 1
    outer loop
      vertex -164.071 -249.727 0
      vertex -170 -242 0
      vertex -165.061 -249.391 0
    endloop
  endfacet
  facet normal 0 0 1
    outer loop
      vertex -170 -8 0
      vertex -166.87 -1.65317 0
      vertex -167.657 -2.34315 0
    endloop
  endfacet
  facet normal 0 0 1
    outer loop
      vertex -165.061 -249.391 0
      vertex -170 -242 0
      vertex -166 -248.928 0
    endloop
  endfacet
  facet normal 0 0 1
    outer loop
      vertex -170 -8 0
      vertex -167.657 -2.34315 0
      vertex -168.347 -3.12991 0
    endloop
  endfacet
  facet normal 0 0 1
    outer loop
      vertex -166 -248.928 0
      vertex -170 -242 0
      vertex -166.87 -248.347 0
    endloop
  endfacet
  facet normal 0 0 1
    outer loop
      vertex -170 -8 0
      vertex -168.347 -3.12991 0
      vertex -168.928 -4 0
    endloop
  endfacet
  facet normal 0 0 1
    outer loop
      vertex -166.87 -248.347 0
      vertex -170 -242 0
      vertex -167.657 -247.657 0
    endloop
  endfacet
  facet normal 0 0 1
    outer loop
      vertex -170 -8 0
      vertex -168.928 -4 0
      vertex -169.391 -4.93853 0
    endloop
  endfacet
  facet normal 0 0 1
    outer loop
      vertex -167.657 -247.657 0
      vertex -170 -242 0
      vertex -168.347 -246.87 0
    endloop
  endfacet
  facet normal 0 0 1
    outer loop
      vertex -170 -8 0
      vertex -169.391 -4.93853 0
      vertex -169.727 -5.92945 0
    endloop
  endfacet
  facet normal 0 0 1
    outer loop
      vertex -168.347 -246.87 0
      vertex -170 -242 0
      vertex -168.928 -246 0
    endloop
  endfacet
  facet normal 0 0 1
    outer loop
      vertex -170 -8 0
      vertex -169.727 -5.92945 0
      vertex -169.932 -6.95579 0
    endloop
  endfacet
  facet normal 0 0 1
    outer loop
      vertex -168.928 -246 0
      vertex -170 -242 0
      vertex -169.391 -245.061 0
    endloop
  endfacet
  facet normal 0 0 1
    outer loop
      vertex -169.391 -245.061 0
      vertex -170 -242 0
      vertex -169.727 -244.071 0
    endloop
  endfacet
  facet normal 0 0 1
    outer loop
      vertex -169.727 -244.071 0
      vertex -170 -242 0
      vertex -169.932 -243.044 0
    endloop
  endfacet
  facet normal 0 0 1
    outer loop
      vertex 3 3 0
      vertex 0 -8 0
      vertex 3 -16 0
    endloop
  endfacet
  facet normal 0 0 1
    outer loop
      vertex 0 -8 0
      vertex 0 -16 0
      vertex 3 -16 0
    endloop
  endfacet
  facet normal 0 0 1
    outer loop
      vertex -8 0 0
      vertex 0 -16 0
      vertex 0 -8 0
    endloop
  endfacet
  facet normal 0 0 1
    outer loop
      vertex -8 0 0
      vertex 0 -8 0
      vertex -0.0684414 -6.95579 0
    endloop
  endfacet
  facet normal 0 0 1
    outer loop
      vertex -16 0 0
      vertex -8 0 0
      vertex -16 3 0
    endloop
  endfacet
  facet normal 0 0 1
    outer loop
      vertex -8 0 0
      vertex -0.0684414 -6.95579 0
      vertex -0.272593 -5.92945 0
    endloop
  endfacet
  facet normal 0 0 1
    outer loop
      vertex 0 -16 0
      vertex -8 -250 0
      vertex 0 -242 0
    endloop
  endfacet
  facet normal 0 0 1
    outer loop
      vertex -8 0 0
      vertex -0.272593 -5.92945 0
      vertex -0.608964 -4.93853 0
    endloop
  endfacet
  facet normal 0 0 1
    outer loop
      vertex 0 -242 0
      vertex -8 -250 0
      vertex -0.0684414 -243.044 0
    endloop
  endfacet
  facet normal 0 0 1
    outer loop
      vertex -8 0 0
      vertex -0.608964 -4.93853 0
      vertex -1.0718 -4 0
    endloop
  endfacet
  facet normal 0 0 1
    outer loop
      vertex -0.0684414 -243.044 0
      vertex -8 -250 0
      vertex -0.272593 -244.071 0
    endloop
  endfacet
  facet normal 0 0 1
    outer loop
      vertex -8 0 0
      vertex -1.0718 -4 0
      vertex -1.65317 -3.12991 0
    endloop
  endfacet
  facet normal 0 0 1
    outer loop
      vertex -0.272593 -244.071 0
      vertex -8 -250 0
      vertex -0.608964 -245.061 0
    endloop
  endfacet
  facet normal 0 0 1
    outer loop
      vertex -8 0 0
      vertex -1.65317 -3.12991 0
      vertex -2.34315 -2.34315 0
    endloop
  endfacet
  facet normal 0 0 1
    outer loop
      vertex -0.608964 -245.061 0
      vertex -8 -250 0
      vertex -1.0718 -246 0
    endloop
  endfacet
  facet normal 0 0 1
    outer loop
      vertex -8 0 0
      vertex -2.34315 -2.34315 0
      vertex -3.12991 -1.65317 0
    endloop
  endfacet
  facet normal 0 0 1
    outer loop
      vertex -1.0718 -246 0
      vertex -8 -250 0
      vertex -1.65317 -246.87 0
    endloop
  endfacet
  facet normal 0 0 1
    outer loop
      vertex -8 0 0
      vertex -3.12991 -1.65317 0
      vertex -4 -1.0718 0
    endloop
  endfacet
  facet normal 0 0 1
    outer loop
      vertex -1.65317 -246.87 0
      vertex -8 -250 0
      vertex -2.34315 -247.657 0
    endloop
  endfacet
  facet normal 0 0 1
    outer loop
      vertex -8 0 0
      vertex -4 -1.0718 0
      vertex -4.93853 -0.608964 0
    endloop
  endfacet
  facet normal 0 0 1
    outer loop
      vertex -2.34315 -247.657 0
      vertex -8 -250 0
      vertex -3.12991 -248.347 0
    endloop
  endfacet
  facet normal 0 0 1
    outer loop
      vertex -8 0 0
      vertex -4.93853 -0.608964 0
      vertex -5.92945 -0.272593 0
    endloop
  endfacet
  facet normal 0 0 1
    outer loop
      vertex -3.12991 -248.347 0
      vertex -8 -250 0
      vertex -4 -248.928 0
    endloop
  endfacet
  facet normal 0 0 1
    outer loop
      vertex -8 0 0
      vertex -5.92945 -0.272593 0
      vertex -6.95579 -0.0684414 0
    endloop
  endfacet
  facet normal 0 0 1
    outer loop
      vertex -4 -248.928 0
      vertex -8 -250 0
      vertex -4.93853 -249.391 0
    endloop
  endfacet
  facet normal 0 0 1
    outer loop
      vertex -4.93853 -249.391 0
      vertex -8 -250 0
      vertex -5.92945 -249.727 0
    endloop
  endfacet
  facet normal 0 0 1
    outer loop
      vertex -5.92945 -249.727 0
      vertex -8 -250 0
      vertex -6.95579 -249.932 0
    endloop
  endfacet
  facet normal 0 0 -1
    outer loop
      vertex -3.5 -3.5 -11
      vertex 3 -16 -11
      vertex -3.5 -16 -11
    endloop
  endfacet
  facet normal 0 0 -1
    outer loop
      vertex 3 -16 -11
      vertex -3.5 -3.5 -11
      vertex 3 3 -11
    endloop
  endfacet
  facet normal 0 0 -1
    outer loop
      vertex -16 3 -11
      vertex -3.5 -3.5 -11
      vertex -16 -3.5 -11
    endloop
  endfacet
  facet normal 0 0 -1
    outer loop
      vertex -3.5 -3.5 -11
      vertex -16 3 -11
      vertex 3 3 -11
    endloop
  endfacet
  facet normal -1 0 0
    outer loop
      vertex -16 0 -7
      vertex -16 3 -11
      vertex -16 0 -8
    endloop
  endfacet
  facet normal -1 0 0
    outer loop
      vertex -16 -3.5 -11
      vertex -16 0 -8
      vertex -16 3 -11
    endloop
  endfacet
  facet normal -1 -0 0
    outer loop
      vertex -16 0 -8
      vertex -16 -3.5 -11
      vertex -16 -3.5 -8
    endloop
  endfacet
  facet normal -1 0 0
    outer loop
      vertex -16 3 -11
      vertex -16 0 -7
      vertex -16 3 0
    endloop
  endfacet
  facet normal -1 -0 0
    outer loop
      vertex -16 3 0
      vertex -16 0 -7
      vertex -16 0 0
    endloop
  endfacet
  facet normal 0 1 -0
    outer loop
      vertex 3 3 -11
      vertex -16 3 0
      vertex 3 3 0
    endloop
  endfacet
  facet normal 0 1 0
    outer loop
      vertex -16 3 0
      vertex 3 3 -11
      vertex -16 3 -11
    endloop
  endfacet
  facet normal 0 -1 0
    outer loop
      vertex -16 0 -7
      vertex -16 0 -8
      vertex -8 0 -7
    endloop
  endfacet
  facet normal 0 -1 0
    outer loop
      vertex -8 0 -7
      vertex 0 0 0
      vertex -8 0 0
    endloop
  endfacet
  facet normal 0 -1 0
    outer loop
      vertex -8 0 -7
      vertex 0 0 -8
      vertex 0 0 0
    endloop
  endfacet
  facet normal 0 -1 0
    outer loop
      vertex 0 0 -8
      vertex -8 0 -7
      vertex -16 0 -8
    endloop
  endfacet
  facet normal 0 1 -0
    outer loop
      vertex -16 0 -7
      vertex -162 0 0
      vertex -16 0 0
    endloop
  endfacet
  facet normal 0 1 0
    outer loop
      vertex -162 0 0
      vertex -16 0 -7
      vertex -162 0 -7
    endloop
  endfacet
  facet normal -1 0 0
    outer loop
      vertex 0 0 -8
      vertex 0 -8 -7
      vertex 0 0 0
    endloop
  endfacet
  facet normal -1 0 0
    outer loop
      vertex 0 -16 -8
      vertex 0 -8 -7
      vertex 0 0 -8
    endloop
  endfacet
  facet normal -1 -0 0
    outer loop
      vertex 0 -8 -7
      vertex 0 -16 -8
      vertex 0 -16 -7
    endloop
  endfacet
  facet normal -1 -0 0
    outer loop
      vertex 0 0 0
      vertex 0 -8 -7
      vertex 0 -8 0
    endloop
  endfacet
  facet normal 1 -0 0
    outer loop
      vertex 0 -242 0
      vertex 0 -16 -7
      vertex 0 -16 0
    endloop
  endfacet
  facet normal 1 0 0
    outer loop
      vertex 0 -16 -7
      vertex 0 -242 0
      vertex 0 -242 -7
    endloop
  endfacet
  facet normal 0 -1 0
    outer loop
      vertex -3.5 -16 -8
      vertex -3.5 -16 -11
      vertex 0 -16 -8
    endloop
  endfacet
  facet normal 0 -1 0
    outer loop
      vertex 0 -16 -7
      vertex 3 -16 0
      vertex 0 -16 0
    endloop
  endfacet
  facet normal 0 -1 0
    outer loop
      vertex 3 -16 -11
      vertex 0 -16 -7
      vertex 0 -16 -8
    endloop
  endfacet
  facet normal 0 -1 0
    outer loop
      vertex 0 -16 -7
      vertex 3 -16 -11
      vertex 3 -16 0
    endloop
  endfacet
  facet normal 0 -1 0
    outer loop
      vertex 3 -16 -11
      vertex 0 -16 -8
      vertex -3.5 -16 -11
    endloop
  endfacet
  facet normal 0 0 1
    outer loop
      vertex 0 0 -8
      vertex -3.5 -3.5 -8
      vertex 0 -16 -8
    endloop
  endfacet
  facet normal -0 0 1
    outer loop
      vertex -16 0 -8
      vertex -3.5 -3.5 -8
      vertex 0 0 -8
    endloop
  endfacet
  facet normal 0 0 1
    outer loop
      vertex -3.5 -3.5 -8
      vertex -16 0 -8
      vertex -16 -3.5 -8
    endloop
  endfacet
  facet normal 0 0 1
    outer loop
      vertex 0 -16 -8
      vertex -3.5 -3.5 -8
      vertex -3.5 -16 -8
    endloop
  endfacet
  facet normal 0 -1 0
    outer loop
      vertex -16 -3.5 -11
      vertex -3.5 -3.5 -8
      vertex -16 -3.5 -8
    endloop
  endfacet
  facet normal 0 -1 -0
    outer loop
      vertex -3.5 -3.5 -8
      vertex -16 -3.5 -11
      vertex -3.5 -3.5 -11
    endloop
  endfacet
  facet normal -1 0 0
    outer loop
      vertex -3.5 -16 -11
      vertex -3.5 -3.5 -8
      vertex -3.5 -3.5 -11
    endloop
  endfacet
  facet normal -1 -0 0
    outer loop
      vertex -3.5 -3.5 -8
      vertex -3.5 -16 -11
      vertex -3.5 -16 -8
    endloop
  endfacet
  facet normal 1 -0 0
    outer loop
      vertex 6.6 -10.1022 -7.72354
      vertex 6.6 0 -11
      vertex 6.6 0 0
    endloop
  endfacet
  facet normal 1 0 0
    outer loop
      vertex 6.6 0 -11
      vertex 6.6 -10.0257 -8.10842
      vertex 6.6 -10 -8.5
    endloop
  endfacet
  facet normal 1 0 0
    outer loop
      vertex 6.6 0 -11
      vertex 6.6 -10.1022 -7.72354
      vertex 6.6 -10.0257 -8.10842
    endloop
  endfacet
  facet normal 1 0 0
    outer loop
      vertex 6.6 0 0
      vertex 6.6 -10.2284 -7.35195
      vertex 6.6 -10.1022 -7.72354
    endloop
  endfacet
  facet normal 1 0 0
    outer loop
      vertex 6.6 0 0
      vertex 6.6 -10.4019 -7
      vertex 6.6 -10.2284 -7.35195
    endloop
  endfacet
  facet normal 1 0 0
    outer loop
      vertex 6.6 0 0
      vertex 6.6 -10.6199 -6.67372
      vertex 6.6 -10.4019 -7
    endloop
  endfacet
  facet normal 1 0 0
    outer loop
      vertex 6.6 0 0
      vertex 6.6 -10.8787 -6.37868
      vertex 6.6 -10.6199 -6.67372
    endloop
  endfacet
  facet normal 1 0 0
    outer loop
      vertex 6.6 0 0
      vertex 6.6 -11.1737 -6.11994
      vertex 6.6 -10.8787 -6.37868
    endloop
  endfacet
  facet normal 1 0 0
    outer loop
      vertex 6.6 0 0
      vertex 6.6 -11.5 -5.90192
      vertex 6.6 -11.1737 -6.11994
    endloop
  endfacet
  facet normal 1 0 0
    outer loop
      vertex 6.6 0 0
      vertex 6.6 -11.852 -5.72836
      vertex 6.6 -11.5 -5.90192
    endloop
  endfacet
  facet normal 1 0 0
    outer loop
      vertex 6.6 0 0
      vertex 6.6 -12.2235 -5.60222
      vertex 6.6 -11.852 -5.72836
    endloop
  endfacet
  facet normal 1 -0 0
    outer loop
      vertex 6.6 -20 0
      vertex 6.6 -12.2235 -5.60222
      vertex 6.6 0 0
    endloop
  endfacet
  facet normal 1 0 0
    outer loop
      vertex 6.6 -12.2235 -5.60222
      vertex 6.6 -20 0
      vertex 6.6 -12.6084 -5.52567
    endloop
  endfacet
  facet normal 1 0 0
    outer loop
      vertex 6.6 -12.6084 -5.52567
      vertex 6.6 -20 0
      vertex 6.6 -13 -5.5
    endloop
  endfacet
  facet normal 1 0 0
    outer loop
      vertex 6.6 -13 -5.5
      vertex 6.6 -20 0
      vertex 6.6 -13.3916 -5.52567
    endloop
  endfacet
  facet normal 1 0 0
    outer loop
      vertex 6.6 -13.3916 -5.52567
      vertex 6.6 -20 0
      vertex 6.6 -13.7765 -5.60222
    endloop
  endfacet
  facet normal 1 0 0
    outer loop
      vertex 6.6 -15.8978 -7.72354
      vertex 6.6 -20 -11
      vertex 6.6 -15.9743 -8.10842
    endloop
  endfacet
  facet normal 1 0 0
    outer loop
      vertex 6.6 -15.7716 -7.35195
      vertex 6.6 -20 -11
      vertex 6.6 -15.8978 -7.72354
    endloop
  endfacet
  facet normal 1 0 0
    outer loop
      vertex 6.6 -20 -11
      vertex 6.6 -15.7716 -7.35195
      vertex 6.6 -20 0
    endloop
  endfacet
  facet normal 1 0 0
    outer loop
      vertex 6.6 -15.5981 -7
      vertex 6.6 -20 0
      vertex 6.6 -15.7716 -7.35195
    endloop
  endfacet
  facet normal 1 0 0
    outer loop
      vertex 6.6 -15.3801 -6.67372
      vertex 6.6 -20 0
      vertex 6.6 -15.5981 -7
    endloop
  endfacet
  facet normal 1 0 0
    outer loop
      vertex 6.6 -15.1213 -6.37868
      vertex 6.6 -20 0
      vertex 6.6 -15.3801 -6.67372
    endloop
  endfacet
  facet normal 1 0 0
    outer loop
      vertex 6.6 -14.8263 -6.11994
      vertex 6.6 -20 0
      vertex 6.6 -15.1213 -6.37868
    endloop
  endfacet
  facet normal 1 0 0
    outer loop
      vertex 6.6 -14.5 -5.90192
      vertex 6.6 -20 0
      vertex 6.6 -14.8263 -6.11994
    endloop
  endfacet
  facet normal 1 0 0
    outer loop
      vertex 6.6 -14.1481 -5.72836
      vertex 6.6 -20 0
      vertex 6.6 -14.5 -5.90192
    endloop
  endfacet
  facet normal 1 0 0
    outer loop
      vertex 6.6 -13.7765 -5.60222
      vertex 6.6 -20 0
      vertex 6.6 -14.1481 -5.72836
    endloop
  endfacet
  facet normal 1 -0 0
    outer loop
      vertex 6.6 -10.0257 -8.89158
      vertex 6.6 0 -11
      vertex 6.6 -10 -8.5
    endloop
  endfacet
  facet normal 1 -0 0
    outer loop
      vertex 6.6 -10.1022 -9.27646
      vertex 6.6 0 -11
      vertex 6.6 -10.0257 -8.89158
    endloop
  endfacet
  facet normal 1 -0 0
    outer loop
      vertex 6.6 -10.2284 -9.64805
      vertex 6.6 0 -11
      vertex 6.6 -10.1022 -9.27646
    endloop
  endfacet
  facet normal 1 -0 0
    outer loop
      vertex 6.6 -10.4019 -10
      vertex 6.6 0 -11
      vertex 6.6 -10.2284 -9.64805
    endloop
  endfacet
  facet normal 1 -0 0
    outer loop
      vertex 6.6 -10.6199 -10.3263
      vertex 6.6 0 -11
      vertex 6.6 -10.4019 -10
    endloop
  endfacet
  facet normal 1 -0 0
    outer loop
      vertex 6.6 -10.8787 -10.6213
      vertex 6.6 0 -11
      vertex 6.6 -10.6199 -10.3263
    endloop
  endfacet
  facet normal 1 -0 0
    outer loop
      vertex 6.6 -11.1737 -10.8801
      vertex 6.6 0 -11
      vertex 6.6 -10.8787 -10.6213
    endloop
  endfacet
  facet normal 1 0 0
    outer loop
      vertex 6.6 0 -11
      vertex 6.6 -11.1737 -10.8801
      vertex 6.6 -11.3532 -11
    endloop
  endfacet
  facet normal 1 0 0
    outer loop
      vertex 6.6 -15.9743 -8.10842
      vertex 6.6 -20 -11
      vertex 6.6 -16 -8.5
    endloop
  endfacet
  facet normal 1 0 0
    outer loop
      vertex 6.6 -16 -8.5
      vertex 6.6 -20 -11
      vertex 6.6 -15.9743 -8.89158
    endloop
  endfacet
  facet normal 1 0 0
    outer loop
      vertex 6.6 -15.9743 -8.89158
      vertex 6.6 -20 -11
      vertex 6.6 -15.8978 -9.27646
    endloop
  endfacet
  facet normal 1 0 0
    outer loop
      vertex 6.6 -14.8263 -10.8801
      vertex 6.6 -20 -11
      vertex 6.6 -14.6468 -11
    endloop
  endfacet
  facet normal 1 0 0
    outer loop
      vertex 6.6 -15.1213 -10.6213
      vertex 6.6 -20 -11
      vertex 6.6 -14.8263 -10.8801
    endloop
  endfacet
  facet normal 1 0 0
    outer loop
      vertex 6.6 -15.3801 -10.3263
      vertex 6.6 -20 -11
      vertex 6.6 -15.1213 -10.6213
    endloop
  endfacet
  facet normal 1 0 0
    outer loop
      vertex 6.6 -15.5981 -10
      vertex 6.6 -20 -11
      vertex 6.6 -15.3801 -10.3263
    endloop
  endfacet
  facet normal 1 0 0
    outer loop
      vertex 6.6 -15.7716 -9.64805
      vertex 6.6 -20 -11
      vertex 6.6 -15.5981 -10
    endloop
  endfacet
  facet normal 1 0 0
    outer loop
      vertex 6.6 -15.8978 -9.27646
      vertex 6.6 -20 -11
      vertex 6.6 -15.7716 -9.64805
    endloop
  endfacet
  facet normal -1 0 0
    outer loop
      vertex 6.6 -11.852 -11.2716
      vertex 6.6 -11.3532 -11
      vertex 6.6 -11.5 -11.0981
    endloop
  endfacet
  facet normal -1 0 0
    outer loop
      vertex 6.6 -12.2235 -11.3978
      vertex 6.6 -11.3532 -11
      vertex 6.6 -11.852 -11.2716
    endloop
  endfacet
  facet normal -1 0 0
    outer loop
      vertex 6.6 -12.6084 -11.4743
      vertex 6.6 -11.3532 -11
      vertex 6.6 -12.2235 -11.3978
    endloop
  endfacet
  facet normal -1 0 0
    outer loop
      vertex 6.6 -13 -11.5
      vertex 6.6 -11.3532 -11
      vertex 6.6 -12.6084 -11.4743
    endloop
  endfacet
  facet normal -1 0 0
    outer loop
      vertex 6.6 -13.3916 -11.4743
      vertex 6.6 -11.3532 -11
      vertex 6.6 -13 -11.5
    endloop
  endfacet
  facet normal -1 0 0
    outer loop
      vertex 6.6 -13.7765 -11.3978
      vertex 6.6 -11.3532 -11
      vertex 6.6 -13.3916 -11.4743
    endloop
  endfacet
  facet normal -1 0 0
    outer loop
      vertex 6.6 -14.1481 -11.2716
      vertex 6.6 -11.3532 -11
      vertex 6.6 -13.7765 -11.3978
    endloop
  endfacet
  facet normal -1 0 0
    outer loop
      vertex 6.6 -14.6468 -11
      vertex 6.6 -14.1481 -11.2716
      vertex 6.6 -14.5 -11.0981
    endloop
  endfacet
  facet normal -1 0 0
    outer loop
      vertex 6.6 -14.1481 -11.2716
      vertex 6.6 -14.6468 -11
      vertex 6.6 -11.3532 -11
    endloop
  endfacet
  facet normal -0 0 1
    outer loop
      vertex 5 0 0
      vertex 6.6 -20 0
      vertex 6.6 0 0
    endloop
  endfacet
  facet normal 0 0 1
    outer loop
      vertex 6.6 -20 0
      vertex 5 0 0
      vertex 5 -20 0
    endloop
  endfacet
  facet normal 0 0 -1
    outer loop
      vertex 5 -20 -11
      vertex 6.6 -14.6468 -11
      vertex 6.6 -20 -11
    endloop
  endfacet
  facet normal -0 0 -1
    outer loop
      vertex 6.6 -14.6468 -11
      vertex 5 -20 -11
      vertex 6.6 -11.3532 -11
    endloop
  endfacet
  facet normal 0 0 -1
    outer loop
      vertex 5 0 -11
      vertex 6.6 -11.3532 -11
      vertex 5 -20 -11
    endloop
  endfacet
  facet normal 0 0 -1
    outer loop
      vertex 6.6 -11.3532 -11
      vertex 5 0 -11
      vertex 6.6 0 -11
    endloop
  endfacet
  facet normal -1 0 0
    outer loop
      vertex 5 -20 -11
      vertex 5 0 0
      vertex 5 0 -11
    endloop
  endfacet
  facet normal -1 -0 0
    outer loop
      vertex 5 0 0
      vertex 5 -20 -11
      vertex 5 -20 0
    endloop
  endfacet
  facet normal 0 1 -0
    outer loop
      vertex 6.6 0 -11
      vertex 5 0 0
      vertex 6.6 0 0
    endloop
  endfacet
  facet normal 0 1 0
    outer loop
      vertex 5 0 0
      vertex 6.6 0 -11
      vertex 5 0 -11
    endloop
  endfacet
  facet normal 0 -1 0
    outer loop
      vertex 5 -20 -11
      vertex 6.6 -20 0
      vertex 5 -20 0
    endloop
  endfacet
  facet normal 0 -1 -0
    outer loop
      vertex 6.6 -20 0
      vertex 5 -20 -11
      vertex 6.6 -20 -11
    endloop
  endfacet
  facet normal 0.639374 0.339936 -0.689669
    outer loop
      vertex 8.4 -12.25 -9.79904
      vertex 6.6 -11.852 -11.2716
      vertex 6.6 -11.5 -11.0981
    endloop
  endfacet
  facet normal 0.639385 0.578025 0.507025
    outer loop
      vertex 6.6 -10.8787 -6.37868
      vertex 8.4 -11.81 -7.58686
      vertex 6.6 -10.6199 -6.67372
    endloop
  endfacet
  facet normal 0.639356 0.578237 0.506819
    outer loop
      vertex 8.4 -11.81 -7.58686
      vertex 6.6 -10.8787 -6.37868
      vertex 8.4 -11.9393 -7.43934
    endloop
  endfacet
  facet normal 0.639375 0.0502748 -0.76725
    outer loop
      vertex 8.4 -13 -10
      vertex 6.6 -13 -11.5
      vertex 8.4 -12.8042 -9.98717
    endloop
  endfacet
  facet normal 0.639367 0.0503533 -0.767251
    outer loop
      vertex 8.4 -12.8042 -9.98717
      vertex 6.6 -13 -11.5
      vertex 6.6 -12.6084 -11.4743
    endloop
  endfacet
  facet normal 0.639371 -0.247152 -0.728094
    outer loop
      vertex 8.4 -13.574 -9.88582
      vertex 6.6 -14.1481 -11.2716
      vertex 8.4 -13.3882 -9.94889
    endloop
  endfacet
  facet normal 0.639367 -0.689574 -0.340143
    outer loop
      vertex 8.4 -14.3858 -9.07403
      vertex 6.6 -15.7716 -9.64805
      vertex 8.4 -14.299 -9.25
    endloop
  endfacet
  facet normal 0.639364 0.340035 -0.68963
    outer loop
      vertex 8.4 -12.426 -9.88582
      vertex 6.6 -11.852 -11.2716
      vertex 8.4 -12.25 -9.79904
    endloop
  endfacet
  facet normal 0.639372 0.050275 0.767252
    outer loop
      vertex 8.4 -12.8042 -7.01283
      vertex 6.6 -12.6084 -5.52567
      vertex 8.4 -13 -7
    endloop
  endfacet
  facet normal 0.639379 0.149888 -0.75414
    outer loop
      vertex 8.4 -12.6118 -9.94889
      vertex 6.6 -12.6084 -11.4743
      vertex 6.6 -12.2235 -11.3978
    endloop
  endfacet
  facet normal 0.639367 0.689574 -0.340143
    outer loop
      vertex 8.4 -11.701 -9.25
      vertex 6.6 -10.2284 -9.64805
      vertex 8.4 -11.6142 -9.07403
    endloop
  endfacet
  facet normal 0.639379 0.24721 0.728068
    outer loop
      vertex 6.6 -11.852 -5.72836
      vertex 6.6 -12.2235 -5.60222
      vertex 8.4 -12.6118 -7.05111
    endloop
  endfacet
  facet normal 0.639394 -0.427248 -0.639245
    outer loop
      vertex 8.4 -13.9131 -9.69003
      vertex 6.6 -14.8263 -10.8801
      vertex 8.4 -13.75 -9.79904
    endloop
  endfacet
  facet normal 0.639374 0.0502944 0.767249
    outer loop
      vertex 6.6 -12.6084 -5.52567
      vertex 6.6 -13 -5.5
      vertex 8.4 -13 -7
    endloop
  endfacet
  facet normal 0.639386 0.57799 -0.507063
    outer loop
      vertex 8.4 -11.81 -9.41314
      vertex 6.6 -10.8787 -10.6213
      vertex 6.6 -10.6199 -10.3263
    endloop
  endfacet
  facet normal 0.639353 0.578239 -0.506821
    outer loop
      vertex 6.6 -10.8787 -10.6213
      vertex 8.4 -11.81 -9.41314
      vertex 8.4 -11.9393 -9.56066
    endloop
  endfacet
  facet normal 0.639375 0.427166 0.639319
    outer loop
      vertex 6.6 -11.1737 -6.11994
      vertex 6.6 -11.5 -5.90192
      vertex 8.4 -12.25 -7.20096
    endloop
  endfacet
  facet normal 0.639372 0.247152 0.728093
    outer loop
      vertex 8.4 -12.426 -7.11418
      vertex 6.6 -11.852 -5.72836
      vertex 8.4 -12.6118 -7.05111
    endloop
  endfacet
  facet normal 0.639353 0.767275 -0.0501615
    outer loop
      vertex 8.4 -11.5128 -8.69579
      vertex 6.6 -10.0257 -8.89158
      vertex 8.4 -11.5 -8.5
    endloop
  endfacet
  facet normal 0.639378 -0.427208 -0.639288
    outer loop
      vertex 8.4 -13.75 -9.79904
      vertex 6.6 -14.6468 -11
      vertex 6.6 -14.5 -11.0981
    endloop
  endfacet
  facet normal 0.639374 -0.427082 -0.639376
    outer loop
      vertex 6.6 -14.6468 -11
      vertex 8.4 -13.75 -9.79904
      vertex 6.6 -14.8263 -10.8801
    endloop
  endfacet
  facet normal 0.639355 -0.754121 -0.150088
    outer loop
      vertex 8.4 -14.4872 -8.69579
      vertex 6.6 -15.9743 -8.89158
      vertex 8.4 -14.4489 -8.88823
    endloop
  endfacet
  facet normal 0.639366 0.507008 0.578061
    outer loop
      vertex 6.6 -11.1737 -6.11994
      vertex 8.4 -11.9393 -7.43934
      vertex 6.6 -10.8787 -6.37868
    endloop
  endfacet
  facet normal 0.639391 0.5068 0.578215
    outer loop
      vertex 8.4 -11.9393 -7.43934
      vertex 6.6 -11.1737 -6.11994
      vertex 8.4 -12.0869 -7.30997
    endloop
  endfacet
  facet normal 0.639386 -0.427252 0.639251
    outer loop
      vertex 8.4 -13.75 -7.20096
      vertex 6.6 -14.8263 -6.11994
      vertex 8.4 -13.9131 -7.30997
    endloop
  endfacet
  facet normal 0.639385 -0.689642 -0.339971
    outer loop
      vertex 8.4 -14.299 -9.25
      vertex 6.6 -15.7716 -9.64805
      vertex 6.6 -15.5981 -10
    endloop
  endfacet
  facet normal 0.639372 -0.767247 0.0503556
    outer loop
      vertex 6.6 -15.9743 -8.10842
      vertex 6.6 -16 -8.5
      vertex 8.4 -14.5 -8.5
    endloop
  endfacet
  facet normal 0.639385 0.689642 -0.339971
    outer loop
      vertex 8.4 -11.701 -9.25
      vertex 6.6 -10.4019 -10
      vertex 6.6 -10.2284 -9.64805
    endloop
  endfacet
  facet normal 0.639389 0.639327 -0.427133
    outer loop
      vertex 8.4 -11.701 -9.25
      vertex 6.6 -10.6199 -10.3263
      vertex 6.6 -10.4019 -10
    endloop
  endfacet
  facet normal 0.639382 -0.247255 -0.728049
    outer loop
      vertex 8.4 -13.3882 -9.94889
      vertex 6.6 -14.1481 -11.2716
      vertex 6.6 -13.7765 -11.3978
    endloop
  endfacet
  facet normal 0.639375 -0.340031 -0.689622
    outer loop
      vertex 8.4 -13.75 -9.79904
      vertex 6.6 -14.1481 -11.2716
      vertex 8.4 -13.574 -9.88582
    endloop
  endfacet
  facet normal 0.639385 0.689642 0.339971
    outer loop
      vertex 6.6 -10.2284 -7.35195
      vertex 6.6 -10.4019 -7
      vertex 8.4 -11.701 -7.75
    endloop
  endfacet
  facet normal 0.639381 -0.24715 0.728086
    outer loop
      vertex 6.6 -13.7765 -5.60222
      vertex 6.6 -14.1481 -5.72836
      vertex 8.4 -13.3882 -7.05111
    endloop
  endfacet
  facet normal 0.639374 -0.0502944 0.767249
    outer loop
      vertex 6.6 -13 -5.5
      vertex 6.6 -13.3916 -5.52567
      vertex 8.4 -13 -7
    endloop
  endfacet
  facet normal 0.639389 -0.639327 -0.427133
    outer loop
      vertex 8.4 -14.299 -9.25
      vertex 6.6 -15.5981 -10
      vertex 6.6 -15.3801 -10.3263
    endloop
  endfacet
  facet normal 0.639388 -0.639316 0.427151
    outer loop
      vertex 8.4 -14.19 -7.58686
      vertex 6.6 -15.3801 -6.67372
      vertex 8.4 -14.299 -7.75
    endloop
  endfacet
  facet normal 0.639355 0.754121 0.150088
    outer loop
      vertex 8.4 -11.5128 -8.30421
      vertex 6.6 -10.0257 -8.10842
      vertex 8.4 -11.5511 -8.11177
    endloop
  endfacet
  facet normal 0.639372 -0.050275 0.767252
    outer loop
      vertex 8.4 -13 -7
      vertex 6.6 -13.3916 -5.52567
      vertex 8.4 -13.1958 -7.01283
    endloop
  endfacet
  facet normal 0.639388 0.639316 0.427151
    outer loop
      vertex 6.6 -10.4019 -7
      vertex 6.6 -10.6199 -6.67372
      vertex 8.4 -11.701 -7.75
    endloop
  endfacet
  facet normal 0.639373 0.340031 0.689623
    outer loop
      vertex 8.4 -12.25 -7.20096
      vertex 6.6 -11.852 -5.72836
      vertex 8.4 -12.426 -7.11418
    endloop
  endfacet
  facet normal 0.639384 -0.340027 0.689615
    outer loop
      vertex 8.4 -13.574 -7.11418
      vertex 6.6 -14.1481 -5.72836
      vertex 8.4 -13.75 -7.20096
    endloop
  endfacet
  facet normal 0.639373 0.728054 0.247263
    outer loop
      vertex 6.6 -10.1022 -7.72354
      vertex 6.6 -10.2284 -7.35195
      vertex 8.4 -11.5511 -8.11177
    endloop
  endfacet
  facet normal 0.639381 -0.24715 0.728086
    outer loop
      vertex 8.4 -13.3882 -7.05111
      vertex 6.6 -14.1481 -5.72836
      vertex 8.4 -13.574 -7.11418
    endloop
  endfacet
  facet normal 0.639373 -0.728054 -0.247263
    outer loop
      vertex 8.4 -14.4489 -8.88823
      vertex 6.6 -15.8978 -9.27646
      vertex 6.6 -15.7716 -9.64805
    endloop
  endfacet
  facet normal 0.639374 0.754144 0.149896
    outer loop
      vertex 6.6 -10.0257 -8.10842
      vertex 6.6 -10.1022 -7.72354
      vertex 8.4 -11.5511 -8.11177
    endloop
  endfacet
  facet normal 0.639374 -0.728051 0.247269
    outer loop
      vertex 8.4 -14.3858 -7.92598
      vertex 6.6 -15.7716 -7.35195
      vertex 8.4 -14.4489 -8.11177
    endloop
  endfacet
  facet normal 0.639367 -0.0503533 -0.767251
    outer loop
      vertex 8.4 -13.1958 -9.98717
      vertex 6.6 -13.3916 -11.4743
      vertex 6.6 -13 -11.5
    endloop
  endfacet
  facet normal 0.639375 -0.0502748 -0.76725
    outer loop
      vertex 8.4 -13.1958 -9.98717
      vertex 6.6 -13 -11.5
      vertex 8.4 -13 -10
    endloop
  endfacet
  facet normal 0.639375 -0.427166 0.639319
    outer loop
      vertex 6.6 -14.5 -5.90192
      vertex 6.6 -14.8263 -6.11994
      vertex 8.4 -13.75 -7.20096
    endloop
  endfacet
  facet normal 0.639365 0.150041 -0.754123
    outer loop
      vertex 8.4 -12.8042 -9.98717
      vertex 6.6 -12.6084 -11.4743
      vertex 8.4 -12.6118 -9.94889
    endloop
  endfacet
  facet normal 0.63938 0.247315 -0.728031
    outer loop
      vertex 8.4 -12.6118 -9.94889
      vertex 6.6 -12.2235 -11.3978
      vertex 6.6 -11.852 -11.2716
    endloop
  endfacet
  facet normal 0.639388 -0.639316 0.427151
    outer loop
      vertex 6.6 -15.3801 -6.67372
      vertex 6.6 -15.5981 -7
      vertex 8.4 -14.299 -7.75
    endloop
  endfacet
  facet normal 0.639377 -0.340013 -0.689629
    outer loop
      vertex 8.4 -13.75 -9.79904
      vertex 6.6 -14.5 -11.0981
      vertex 6.6 -14.1481 -11.2716
    endloop
  endfacet
  facet normal 0.639374 -0.754144 -0.149896
    outer loop
      vertex 8.4 -14.4489 -8.88823
      vertex 6.6 -15.9743 -8.89158
      vertex 6.6 -15.8978 -9.27646
    endloop
  endfacet
  facet normal 0.639374 0.427082 -0.639376
    outer loop
      vertex 8.4 -12.25 -9.79904
      vertex 6.6 -11.3532 -11
      vertex 6.6 -11.1737 -10.8801
    endloop
  endfacet
  facet normal 0.639378 0.427208 -0.639288
    outer loop
      vertex 6.6 -11.3532 -11
      vertex 8.4 -12.25 -9.79904
      vertex 6.6 -11.5 -11.0981
    endloop
  endfacet
  facet normal 0.639388 0.639316 0.427151
    outer loop
      vertex 8.4 -11.701 -7.75
      vertex 6.6 -10.6199 -6.67372
      vertex 8.4 -11.81 -7.58686
    endloop
  endfacet
  facet normal 0.639373 0.340031 0.689623
    outer loop
      vertex 6.6 -11.5 -5.90192
      vertex 6.6 -11.852 -5.72836
      vertex 8.4 -12.25 -7.20096
    endloop
  endfacet
  facet normal 0.639391 -0.5068 0.578215
    outer loop
      vertex 6.6 -14.8263 -6.11994
      vertex 8.4 -14.0607 -7.43934
      vertex 8.4 -13.9131 -7.30997
    endloop
  endfacet
  facet normal 0.639366 -0.507008 0.578061
    outer loop
      vertex 8.4 -14.0607 -7.43934
      vertex 6.6 -14.8263 -6.11994
      vertex 6.6 -15.1213 -6.37868
    endloop
  endfacet
  facet normal 0.639391 0.639314 -0.42715
    outer loop
      vertex 8.4 -11.81 -9.41314
      vertex 6.6 -10.6199 -10.3263
      vertex 8.4 -11.701 -9.25
    endloop
  endfacet
  facet normal 0.639373 -0.728054 0.247263
    outer loop
      vertex 6.6 -15.7716 -7.35195
      vertex 6.6 -15.8978 -7.72354
      vertex 8.4 -14.4489 -8.11177
    endloop
  endfacet
  facet normal 0.639378 -0.149982 0.754123
    outer loop
      vertex 6.6 -13.3916 -5.52567
      vertex 6.6 -13.7765 -5.60222
      vertex 8.4 -13.3882 -7.05111
    endloop
  endfacet
  facet normal 0.639373 0.728054 -0.247263
    outer loop
      vertex 8.4 -11.5511 -8.88823
      vertex 6.6 -10.2284 -9.64805
      vertex 6.6 -10.1022 -9.27646
    endloop
  endfacet
  facet normal 0.639391 -0.639314 -0.42715
    outer loop
      vertex 8.4 -14.299 -9.25
      vertex 6.6 -15.3801 -10.3263
      vertex 8.4 -14.19 -9.41314
    endloop
  endfacet
  facet normal 0.639353 -0.578239 -0.506821
    outer loop
      vertex 8.4 -14.19 -9.41314
      vertex 6.6 -15.1213 -10.6213
      vertex 8.4 -14.0607 -9.56066
    endloop
  endfacet
  facet normal 0.639386 -0.57799 -0.507063
    outer loop
      vertex 6.6 -15.1213 -10.6213
      vertex 8.4 -14.19 -9.41314
      vertex 6.6 -15.3801 -10.3263
    endloop
  endfacet
  facet normal 0.639398 -0.506796 -0.578211
    outer loop
      vertex 8.4 -14.0607 -9.56066
      vertex 6.6 -14.8263 -10.8801
      vertex 8.4 -13.9131 -9.69003
    endloop
  endfacet
  facet normal 0.639365 -0.507075 -0.578003
    outer loop
      vertex 6.6 -14.8263 -10.8801
      vertex 8.4 -14.0607 -9.56066
      vertex 6.6 -15.1213 -10.6213
    endloop
  endfacet
  facet normal 0.639379 -0.149888 -0.75414
    outer loop
      vertex 8.4 -13.3882 -9.94889
      vertex 6.6 -13.7765 -11.3978
      vertex 6.6 -13.3916 -11.4743
    endloop
  endfacet
  facet normal 0.639355 -0.754121 0.150088
    outer loop
      vertex 8.4 -14.4489 -8.11177
      vertex 6.6 -15.9743 -8.10842
      vertex 8.4 -14.4872 -8.30421
    endloop
  endfacet
  facet normal 1 0 0
    outer loop
      vertex 8.4 -11.5128 -8.30421
      vertex 8.4 -11.5128 -8.69579
      vertex 8.4 -11.5 -8.5
    endloop
  endfacet
  facet normal 1 0 0
    outer loop
      vertex 8.4 -11.5511 -8.11177
      vertex 8.4 -11.5128 -8.69579
      vertex 8.4 -11.5128 -8.30421
    endloop
  endfacet
  facet normal 1 0 0
    outer loop
      vertex 8.4 -11.5511 -8.11177
      vertex 8.4 -11.5511 -8.88823
      vertex 8.4 -11.5128 -8.69579
    endloop
  endfacet
  facet normal 1 0 0
    outer loop
      vertex 8.4 -11.6142 -7.92598
      vertex 8.4 -11.5511 -8.88823
      vertex 8.4 -11.5511 -8.11177
    endloop
  endfacet
  facet normal 1 0 0
    outer loop
      vertex 8.4 -11.6142 -7.92598
      vertex 8.4 -11.6142 -9.07403
      vertex 8.4 -11.5511 -8.88823
    endloop
  endfacet
  facet normal 1 0 0
    outer loop
      vertex 8.4 -11.701 -7.75
      vertex 8.4 -11.6142 -9.07403
      vertex 8.4 -11.6142 -7.92598
    endloop
  endfacet
  facet normal 1 0 0
    outer loop
      vertex 8.4 -11.701 -7.75
      vertex 8.4 -11.701 -9.25
      vertex 8.4 -11.6142 -9.07403
    endloop
  endfacet
  facet normal 1 0 0
    outer loop
      vertex 8.4 -11.81 -7.58686
      vertex 8.4 -11.701 -9.25
      vertex 8.4 -11.701 -7.75
    endloop
  endfacet
  facet normal 1 0 0
    outer loop
      vertex 8.4 -11.81 -7.58686
      vertex 8.4 -11.81 -9.41314
      vertex 8.4 -11.701 -9.25
    endloop
  endfacet
  facet normal 1 0 0
    outer loop
      vertex 8.4 -11.9393 -7.43934
      vertex 8.4 -11.81 -9.41314
      vertex 8.4 -11.81 -7.58686
    endloop
  endfacet
  facet normal 1 0 0
    outer loop
      vertex 8.4 -11.9393 -7.43934
      vertex 8.4 -11.9393 -9.56066
      vertex 8.4 -11.81 -9.41314
    endloop
  endfacet
  facet normal 1 0 0
    outer loop
      vertex 8.4 -12.0869 -7.30997
      vertex 8.4 -11.9393 -9.56066
      vertex 8.4 -11.9393 -7.43934
    endloop
  endfacet
  facet normal 1 0 0
    outer loop
      vertex 8.4 -12.0869 -7.30997
      vertex 8.4 -12.0869 -9.69003
      vertex 8.4 -11.9393 -9.56066
    endloop
  endfacet
  facet normal 1 0 0
    outer loop
      vertex 8.4 -12.25 -7.20096
      vertex 8.4 -12.0869 -9.69003
      vertex 8.4 -12.0869 -7.30997
    endloop
  endfacet
  facet normal 1 0 0
    outer loop
      vertex 8.4 -12.25 -7.20096
      vertex 8.4 -12.25 -9.79904
      vertex 8.4 -12.0869 -9.69003
    endloop
  endfacet
  facet normal 1 0 0
    outer loop
      vertex 8.4 -12.426 -7.11418
      vertex 8.4 -12.25 -9.79904
      vertex 8.4 -12.25 -7.20096
    endloop
  endfacet
  facet normal 1 0 0
    outer loop
      vertex 8.4 -12.426 -7.11418
      vertex 8.4 -12.426 -9.88582
      vertex 8.4 -12.25 -9.79904
    endloop
  endfacet
  facet normal 1 0 0
    outer loop
      vertex 8.4 -12.6118 -7.05111
      vertex 8.4 -12.426 -9.88582
      vertex 8.4 -12.426 -7.11418
    endloop
  endfacet
  facet normal 1 0 0
    outer loop
      vertex 8.4 -12.6118 -7.05111
      vertex 8.4 -12.6118 -9.94889
      vertex 8.4 -12.426 -9.88582
    endloop
  endfacet
  facet normal 1 0 0
    outer loop
      vertex 8.4 -12.8042 -7.01283
      vertex 8.4 -12.6118 -9.94889
      vertex 8.4 -12.6118 -7.05111
    endloop
  endfacet
  facet normal 1 0 0
    outer loop
      vertex 8.4 -12.8042 -7.01283
      vertex 8.4 -12.8042 -9.98717
      vertex 8.4 -12.6118 -9.94889
    endloop
  endfacet
  facet normal 1 0 0
    outer loop
      vertex 8.4 -13 -7
      vertex 8.4 -12.8042 -9.98717
      vertex 8.4 -12.8042 -7.01283
    endloop
  endfacet
  facet normal 1 0 0
    outer loop
      vertex 8.4 -13 -7
      vertex 8.4 -13 -10
      vertex 8.4 -12.8042 -9.98717
    endloop
  endfacet
  facet normal 1 -0 0
    outer loop
      vertex 8.4 -13.1958 -7.01283
      vertex 8.4 -13 -10
      vertex 8.4 -13 -7
    endloop
  endfacet
  facet normal 1 0 0
    outer loop
      vertex 8.4 -13.1958 -7.01283
      vertex 8.4 -13.1958 -9.98717
      vertex 8.4 -13 -10
    endloop
  endfacet
  facet normal 1 -0 0
    outer loop
      vertex 8.4 -13.3882 -7.05111
      vertex 8.4 -13.1958 -9.98717
      vertex 8.4 -13.1958 -7.01283
    endloop
  endfacet
  facet normal 1 0 0
    outer loop
      vertex 8.4 -13.3882 -7.05111
      vertex 8.4 -13.3882 -9.94889
      vertex 8.4 -13.1958 -9.98717
    endloop
  endfacet
  facet normal 1 -0 0
    outer loop
      vertex 8.4 -13.574 -7.11418
      vertex 8.4 -13.3882 -9.94889
      vertex 8.4 -13.3882 -7.05111
    endloop
  endfacet
  facet normal 1 0 0
    outer loop
      vertex 8.4 -13.574 -7.11418
      vertex 8.4 -13.574 -9.88582
      vertex 8.4 -13.3882 -9.94889
    endloop
  endfacet
  facet normal 1 -0 0
    outer loop
      vertex 8.4 -13.75 -7.20096
      vertex 8.4 -13.574 -9.88582
      vertex 8.4 -13.574 -7.11418
    endloop
  endfacet
  facet normal 1 0 0
    outer loop
      vertex 8.4 -13.75 -7.20096
      vertex 8.4 -13.75 -9.79904
      vertex 8.4 -13.574 -9.88582
    endloop
  endfacet
  facet normal 1 -0 0
    outer loop
      vertex 8.4 -13.9131 -7.30997
      vertex 8.4 -13.75 -9.79904
      vertex 8.4 -13.75 -7.20096
    endloop
  endfacet
  facet normal 1 0 0
    outer loop
      vertex 8.4 -13.9131 -7.30997
      vertex 8.4 -13.9131 -9.69003
      vertex 8.4 -13.75 -9.79904
    endloop
  endfacet
  facet normal 1 -0 0
    outer loop
      vertex 8.4 -14.0607 -7.43934
      vertex 8.4 -13.9131 -9.69003
      vertex 8.4 -13.9131 -7.30997
    endloop
  endfacet
  facet normal 1 0 0
    outer loop
      vertex 8.4 -14.0607 -7.43934
      vertex 8.4 -14.0607 -9.56066
      vertex 8.4 -13.9131 -9.69003
    endloop
  endfacet
  facet normal 1 -0 0
    outer loop
      vertex 8.4 -14.19 -7.58686
      vertex 8.4 -14.0607 -9.56066
      vertex 8.4 -14.0607 -7.43934
    endloop
  endfacet
  facet normal 1 0 0
    outer loop
      vertex 8.4 -14.19 -7.58686
      vertex 8.4 -14.19 -9.41314
      vertex 8.4 -14.0607 -9.56066
    endloop
  endfacet
  facet normal 1 -0 0
    outer loop
      vertex 8.4 -14.299 -7.75
      vertex 8.4 -14.19 -9.41314
      vertex 8.4 -14.19 -7.58686
    endloop
  endfacet
  facet normal 1 0 0
    outer loop
      vertex 8.4 -14.299 -7.75
      vertex 8.4 -14.299 -9.25
      vertex 8.4 -14.19 -9.41314
    endloop
  endfacet
  facet normal 1 -0 0
    outer loop
      vertex 8.4 -14.3858 -7.92598
      vertex 8.4 -14.299 -9.25
      vertex 8.4 -14.299 -7.75
    endloop
  endfacet
  facet normal 1 0 0
    outer loop
      vertex 8.4 -14.3858 -7.92598
      vertex 8.4 -14.3858 -9.07403
      vertex 8.4 -14.299 -9.25
    endloop
  endfacet
  facet normal 1 -0 0
    outer loop
      vertex 8.4 -14.4489 -8.11177
      vertex 8.4 -14.3858 -9.07403
      vertex 8.4 -14.3858 -7.92598
    endloop
  endfacet
  facet normal 1 0 0
    outer loop
      vertex 8.4 -14.4489 -8.11177
      vertex 8.4 -14.4489 -8.88823
      vertex 8.4 -14.3858 -9.07403
    endloop
  endfacet
  facet normal 1 -0 0
    outer loop
      vertex 8.4 -14.4872 -8.30421
      vertex 8.4 -14.4489 -8.88823
      vertex 8.4 -14.4489 -8.11177
    endloop
  endfacet
  facet normal 1 0 0
    outer loop
      vertex 8.4 -14.4872 -8.30421
      vertex 8.4 -14.4872 -8.69579
      vertex 8.4 -14.4489 -8.88823
    endloop
  endfacet
  facet normal 1 0 -0
    outer loop
      vertex 8.4 -14.4872 -8.69579
      vertex 8.4 -14.4872 -8.30421
      vertex 8.4 -14.5 -8.5
    endloop
  endfacet
  facet normal 0.639386 0.427252 0.639251
    outer loop
      vertex 8.4 -12.0869 -7.30997
      vertex 6.6 -11.1737 -6.11994
      vertex 8.4 -12.25 -7.20096
    endloop
  endfacet
  facet normal 0.639365 0.507075 -0.578003
    outer loop
      vertex 8.4 -11.9393 -9.56066
      vertex 6.6 -11.1737 -10.8801
      vertex 6.6 -10.8787 -10.6213
    endloop
  endfacet
  facet normal 0.639398 0.506796 -0.578211
    outer loop
      vertex 6.6 -11.1737 -10.8801
      vertex 8.4 -11.9393 -9.56066
      vertex 8.4 -12.0869 -9.69003
    endloop
  endfacet
  facet normal 0.639378 0.149982 0.754123
    outer loop
      vertex 6.6 -12.2235 -5.60222
      vertex 6.6 -12.6084 -5.52567
      vertex 8.4 -12.6118 -7.05111
    endloop
  endfacet
  facet normal 0.639363 0.247154 -0.7281
    outer loop
      vertex 8.4 -12.6118 -9.94889
      vertex 6.6 -11.852 -11.2716
      vertex 8.4 -12.426 -9.88582
    endloop
  endfacet
  facet normal 0.639374 -0.754144 0.149896
    outer loop
      vertex 6.6 -15.8978 -7.72354
      vertex 6.6 -15.9743 -8.10842
      vertex 8.4 -14.4489 -8.11177
    endloop
  endfacet
  facet normal 0.639365 -0.150041 -0.754123
    outer loop
      vertex 8.4 -13.3882 -9.94889
      vertex 6.6 -13.3916 -11.4743
      vertex 8.4 -13.1958 -9.98717
    endloop
  endfacet
  facet normal 0.639394 0.427248 -0.639245
    outer loop
      vertex 8.4 -12.25 -9.79904
      vertex 6.6 -11.1737 -10.8801
      vertex 8.4 -12.0869 -9.69003
    endloop
  endfacet
  facet normal 0.639369 -0.68958 0.340127
    outer loop
      vertex 8.4 -14.299 -7.75
      vertex 6.6 -15.7716 -7.35195
      vertex 8.4 -14.3858 -7.92598
    endloop
  endfacet
  facet normal 0.639385 -0.689642 0.339971
    outer loop
      vertex 6.6 -15.5981 -7
      vertex 6.6 -15.7716 -7.35195
      vertex 8.4 -14.299 -7.75
    endloop
  endfacet
  facet normal 0.639374 0.754144 -0.149896
    outer loop
      vertex 8.4 -11.5511 -8.88823
      vertex 6.6 -10.1022 -9.27646
      vertex 6.6 -10.0257 -8.89158
    endloop
  endfacet
  facet normal 0.639372 0.767247 -0.0503556
    outer loop
      vertex 8.4 -11.5 -8.5
      vertex 6.6 -10.0257 -8.89158
      vertex 6.6 -10 -8.5
    endloop
  endfacet
  facet normal 0.639373 -0.728056 -0.247257
    outer loop
      vertex 8.4 -14.4489 -8.88823
      vertex 6.6 -15.7716 -9.64805
      vertex 8.4 -14.3858 -9.07403
    endloop
  endfacet
  facet normal 0.639372 0.150039 0.754116
    outer loop
      vertex 8.4 -12.6118 -7.05111
      vertex 6.6 -12.6084 -5.52567
      vertex 8.4 -12.8042 -7.01283
    endloop
  endfacet
  facet normal 0.639372 -0.150039 0.754116
    outer loop
      vertex 8.4 -13.1958 -7.01283
      vertex 6.6 -13.3916 -5.52567
      vertex 8.4 -13.3882 -7.05111
    endloop
  endfacet
  facet normal 0.639356 -0.578237 0.506819
    outer loop
      vertex 6.6 -15.1213 -6.37868
      vertex 8.4 -14.19 -7.58686
      vertex 8.4 -14.0607 -7.43934
    endloop
  endfacet
  facet normal 0.639385 -0.578025 0.507025
    outer loop
      vertex 8.4 -14.19 -7.58686
      vertex 6.6 -15.1213 -6.37868
      vertex 6.6 -15.3801 -6.67372
    endloop
  endfacet
  facet normal 0.639373 0.728056 -0.247257
    outer loop
      vertex 8.4 -11.6142 -9.07403
      vertex 6.6 -10.2284 -9.64805
      vertex 8.4 -11.5511 -8.88823
    endloop
  endfacet
  facet normal 0.639355 0.754121 -0.150088
    outer loop
      vertex 8.4 -11.5511 -8.88823
      vertex 6.6 -10.0257 -8.89158
      vertex 8.4 -11.5128 -8.69579
    endloop
  endfacet
  facet normal 0.639369 0.68958 0.340127
    outer loop
      vertex 8.4 -11.6142 -7.92598
      vertex 6.6 -10.2284 -7.35195
      vertex 8.4 -11.701 -7.75
    endloop
  endfacet
  facet normal 0.639353 0.767275 0.0501615
    outer loop
      vertex 8.4 -11.5 -8.5
      vertex 6.6 -10.0257 -8.10842
      vertex 8.4 -11.5128 -8.30421
    endloop
  endfacet
  facet normal 0.639376 -0.340108 0.689583
    outer loop
      vertex 6.6 -14.1481 -5.72836
      vertex 6.6 -14.5 -5.90192
      vertex 8.4 -13.75 -7.20096
    endloop
  endfacet
  facet normal 0.639372 0.767247 0.0503556
    outer loop
      vertex 6.6 -10 -8.5
      vertex 6.6 -10.0257 -8.10842
      vertex 8.4 -11.5 -8.5
    endloop
  endfacet
  facet normal 0.639374 0.728051 0.247269
    outer loop
      vertex 8.4 -11.5511 -8.11177
      vertex 6.6 -10.2284 -7.35195
      vertex 8.4 -11.6142 -7.92598
    endloop
  endfacet
  facet normal 0.639353 -0.767275 0.0501615
    outer loop
      vertex 8.4 -14.4872 -8.30421
      vertex 6.6 -15.9743 -8.10842
      vertex 8.4 -14.5 -8.5
    endloop
  endfacet
  facet normal 0.639379 -0.767254 -0.0501601
    outer loop
      vertex 6.6 -16 -8.5
      vertex 8.4 -14.4872 -8.69579
      vertex 8.4 -14.5 -8.5
    endloop
  endfacet
  facet normal 0.63936 -0.767257 -0.0503563
    outer loop
      vertex 8.4 -14.4872 -8.69579
      vertex 6.6 -16 -8.5
      vertex 6.6 -15.9743 -8.89158
    endloop
  endfacet
  facet normal 0.896959 -0.442114 0
    outer loop
      vertex -1.0718 -246 0
      vertex -0.608964 -245.061 -7
      vertex -0.608964 -245.061 0
    endloop
  endfacet
  facet normal 0.896959 -0.442114 0
    outer loop
      vertex -0.608964 -245.061 -7
      vertex -1.0718 -246 0
      vertex -1.0718 -246 -7
    endloop
  endfacet
  facet normal -0.659248 -0.751925 0
    outer loop
      vertex -167.657 -247.657 -7
      vertex -166.87 -248.347 0
      vertex -167.657 -247.657 0
    endloop
  endfacet
  facet normal -0.659248 -0.751925 -0
    outer loop
      vertex -166.87 -248.347 0
      vertex -167.657 -247.657 -7
      vertex -166.87 -248.347 -7
    endloop
  endfacet
  facet normal 0.831446 -0.555606 0
    outer loop
      vertex -1.65317 -246.87 0
      vertex -1.0718 -246 -7
      vertex -1.0718 -246 0
    endloop
  endfacet
  facet normal 0.831446 -0.555606 0
    outer loop
      vertex -1.0718 -246 -7
      vertex -1.65317 -246.87 0
      vertex -1.65317 -246.87 -7
    endloop
  endfacet
  facet normal 0.19587 -0.98063 0
    outer loop
      vertex -6.95579 -249.932 -7
      vertex -5.92945 -249.727 0
      vertex -6.95579 -249.932 0
    endloop
  endfacet
  facet normal 0.19587 -0.98063 0
    outer loop
      vertex -5.92945 -249.727 0
      vertex -6.95579 -249.932 -7
      vertex -5.92945 -249.727 -7
    endloop
  endfacet
  facet normal 0.946839 -0.321706 0
    outer loop
      vertex -0.608964 -245.061 0
      vertex -0.272593 -244.071 -7
      vertex -0.272593 -244.071 0
    endloop
  endfacet
  facet normal 0.946839 -0.321706 0
    outer loop
      vertex -0.272593 -244.071 -7
      vertex -0.608964 -245.061 0
      vertex -0.608964 -245.061 -7
    endloop
  endfacet
  facet normal -0.321388 -0.946948 0
    outer loop
      vertex -165.061 -249.391 -7
      vertex -164.071 -249.727 0
      vertex -165.061 -249.391 0
    endloop
  endfacet
  facet normal -0.321388 -0.946948 -0
    outer loop
      vertex -164.071 -249.727 0
      vertex -165.061 -249.391 -7
      vertex -164.071 -249.727 -7
    endloop
  endfacet
  facet normal 0.555322 -0.831635 0
    outer loop
      vertex -4 -248.928 -7
      vertex -3.12991 -248.347 0
      vertex -4 -248.928 0
    endloop
  endfacet
  facet normal 0.555322 -0.831635 0
    outer loop
      vertex -3.12991 -248.347 0
      vertex -4 -248.928 -7
      vertex -3.12991 -248.347 -7
    endloop
  endfacet
  facet normal 0.751835 0.659351 0
    outer loop
      vertex -1.65317 -3.12991 0
      vertex -2.34315 -2.34315 -7
      vertex -2.34315 -2.34315 0
    endloop
  endfacet
  facet normal 0.751835 0.659351 0
    outer loop
      vertex -2.34315 -2.34315 -7
      vertex -1.65317 -3.12991 0
      vertex -1.65317 -3.12991 -7
    endloop
  endfacet
  facet normal -0.946948 -0.321388 0
    outer loop
      vertex -169.391 -245.061 -7
      vertex -169.727 -244.071 0
      vertex -169.727 -244.071 -7
    endloop
  endfacet
  facet normal -0.946948 -0.321388 0
    outer loop
      vertex -169.727 -244.071 0
      vertex -169.391 -245.061 -7
      vertex -169.391 -245.061 0
    endloop
  endfacet
  facet normal 0.980785 0.19509 0
    outer loop
      vertex -0.0684414 -6.95579 0
      vertex -0.272593 -5.92945 -7
      vertex -0.272593 -5.92945 0
    endloop
  endfacet
  facet normal 0.980785 0.19509 0
    outer loop
      vertex -0.272593 -5.92945 -7
      vertex -0.0684414 -6.95579 0
      vertex -0.0684414 -6.95579 -7
    endloop
  endfacet
  facet normal -0.997886 0.0649834 0
    outer loop
      vertex -170 -8 -7
      vertex -169.932 -6.95579 0
      vertex -169.932 -6.95579 -7
    endloop
  endfacet
  facet normal -0.997886 0.0649834 0
    outer loop
      vertex -169.932 -6.95579 0
      vertex -170 -8 -7
      vertex -170 -8 0
    endloop
  endfacet
  facet normal 0.659362 -0.751826 0
    outer loop
      vertex -3.12991 -248.347 -7
      vertex -2.34315 -247.657 0
      vertex -3.12991 -248.347 0
    endloop
  endfacet
  facet normal 0.659362 -0.751826 0
    outer loop
      vertex -2.34315 -247.657 0
      vertex -3.12991 -248.347 -7
      vertex -2.34315 -247.657 -7
    endloop
  endfacet
  facet normal 0.94693 0.321439 0
    outer loop
      vertex -0.272593 -5.92945 0
      vertex -0.608964 -4.93853 -7
      vertex -0.608964 -4.93853 0
    endloop
  endfacet
  facet normal 0.94693 0.321439 0
    outer loop
      vertex -0.608964 -4.93853 -7
      vertex -0.272593 -5.92945 0
      vertex -0.272593 -5.92945 -7
    endloop
  endfacet
  facet normal 0.896871 0.442292 0
    outer loop
      vertex -0.608964 -4.93853 0
      vertex -1.0718 -4 -7
      vertex -1.0718 -4 0
    endloop
  endfacet
  facet normal 0.896871 0.442292 0
    outer loop
      vertex -1.0718 -4 -7
      vertex -0.608964 -4.93853 0
      vertex -0.608964 -4.93853 -7
    endloop
  endfacet
  facet normal 0.997859 0.0654034 0
    outer loop
      vertex 0 -8 0
      vertex -0.0684414 -6.95579 -7
      vertex -0.0684414 -6.95579 0
    endloop
  endfacet
  facet normal 0.997859 0.0654034 0
    outer loop
      vertex -0.0684414 -6.95579 -7
      vertex 0 -8 0
      vertex 0 -8 -7
    endloop
  endfacet
  facet normal 0 -1 0
    outer loop
      vertex -162 -250 -7
      vertex -8 -250 0
      vertex -162 -250 0
    endloop
  endfacet
  facet normal 0 -1 -0
    outer loop
      vertex -8 -250 0
      vertex -162 -250 -7
      vertex -8 -250 -7
    endloop
  endfacet
  facet normal -1 0 0
    outer loop
      vertex -170 -242 -7
      vertex -170 -8 0
      vertex -170 -8 -7
    endloop
  endfacet
  facet normal -1 -0 0
    outer loop
      vertex -170 -8 0
      vertex -170 -242 -7
      vertex -170 -242 0
    endloop
  endfacet
  facet normal 0.997858 -0.0654165 0
    outer loop
      vertex -0.0684414 -243.044 0
      vertex 0 -242 -7
      vertex 0 -242 0
    endloop
  endfacet
  facet normal 0.997858 -0.0654165 0
    outer loop
      vertex 0 -242 -7
      vertex -0.0684414 -243.044 0
      vertex -0.0684414 -243.044 -7
    endloop
  endfacet
  facet normal -0.831609 -0.555362 0
    outer loop
      vertex -168.347 -246.87 -7
      vertex -168.928 -246 0
      vertex -168.928 -246 -7
    endloop
  endfacet
  facet normal -0.831609 -0.555362 0
    outer loop
      vertex -168.928 -246 0
      vertex -168.347 -246.87 -7
      vertex -168.347 -246.87 0
    endloop
  endfacet
  facet normal -0.896897 -0.44224 0
    outer loop
      vertex -168.928 -246 -7
      vertex -169.391 -245.061 0
      vertex -169.391 -245.061 -7
    endloop
  endfacet
  facet normal -0.896897 -0.44224 0
    outer loop
      vertex -169.391 -245.061 0
      vertex -168.928 -246 -7
      vertex -168.928 -246 0
    endloop
  endfacet
  facet normal -0.659238 0.751935 0
    outer loop
      vertex -166.87 -1.65317 -7
      vertex -167.657 -2.34315 0
      vertex -166.87 -1.65317 0
    endloop
  endfacet
  facet normal -0.659238 0.751935 0
    outer loop
      vertex -167.657 -2.34315 0
      vertex -166.87 -1.65317 -7
      vertex -167.657 -2.34315 -7
    endloop
  endfacet
  facet normal -0.751925 -0.659248 0
    outer loop
      vertex -167.657 -247.657 -7
      vertex -168.347 -246.87 0
      vertex -168.347 -246.87 -7
    endloop
  endfacet
  facet normal -0.751925 -0.659248 0
    outer loop
      vertex -168.347 -246.87 0
      vertex -167.657 -247.657 -7
      vertex -167.657 -247.657 0
    endloop
  endfacet
  facet normal 0.555567 0.831472 -0
    outer loop
      vertex -3.12991 -1.65317 -7
      vertex -4 -1.0718 0
      vertex -3.12991 -1.65317 0
    endloop
  endfacet
  facet normal 0.555567 0.831472 0
    outer loop
      vertex -4 -1.0718 0
      vertex -3.12991 -1.65317 -7
      vertex -4 -1.0718 -7
    endloop
  endfacet
  facet normal 0.321121 -0.947038 0
    outer loop
      vertex -5.92945 -249.727 -7
      vertex -4.93853 -249.391 0
      vertex -5.92945 -249.727 0
    endloop
  endfacet
  facet normal 0.321121 -0.947038 0
    outer loop
      vertex -4.93853 -249.391 0
      vertex -5.92945 -249.727 -7
      vertex -4.93853 -249.391 -7
    endloop
  endfacet
  facet normal 0.0654034 0.997859 -0
    outer loop
      vertex -6.95579 -0.0684414 -7
      vertex -8 0 0
      vertex -6.95579 -0.0684414 0
    endloop
  endfacet
  facet normal 0.0654034 0.997859 0
    outer loop
      vertex -8 0 0
      vertex -6.95579 -0.0684414 -7
      vertex -8 0 -7
    endloop
  endfacet
  facet normal 0.751935 -0.659238 0
    outer loop
      vertex -2.34315 -247.657 0
      vertex -1.65317 -246.87 -7
      vertex -1.65317 -246.87 0
    endloop
  endfacet
  facet normal 0.751935 -0.659238 0
    outer loop
      vertex -1.65317 -246.87 -7
      vertex -2.34315 -247.657 0
      vertex -2.34315 -247.657 -7
    endloop
  endfacet
  facet normal 0 0 -1
    outer loop
      vertex -170 -242 -7
      vertex 0 -16 -7
      vertex 0 -242 -7
    endloop
  endfacet
  facet normal 0 0 -1
    outer loop
      vertex -8 -250 -7
      vertex 0 -242 -7
      vertex -0.0684414 -243.044 -7
    endloop
  endfacet
  facet normal 0 0 -1
    outer loop
      vertex 0 -16 -7
      vertex -16 0 -7
      vertex 0 -8 -7
    endloop
  endfacet
  facet normal 0 0 -1
    outer loop
      vertex -8 -250 -7
      vertex -0.0684414 -243.044 -7
      vertex -0.272593 -244.071 -7
    endloop
  endfacet
  facet normal -0 -0 -1
    outer loop
      vertex -8 0 -7
      vertex 0 -8 -7
      vertex -16 0 -7
    endloop
  endfacet
  facet normal 0 0 -1
    outer loop
      vertex -8 -250 -7
      vertex -0.272593 -244.071 -7
      vertex -0.608964 -245.061 -7
    endloop
  endfacet
  facet normal 0 0 -1
    outer loop
      vertex 0 -8 -7
      vertex -8 0 -7
      vertex -0.0684414 -6.95579 -7
    endloop
  endfacet
  facet normal 0 0 -1
    outer loop
      vertex -8 -250 -7
      vertex -0.608964 -245.061 -7
      vertex -1.0718 -246 -7
    endloop
  endfacet
  facet normal 0 0 -1
    outer loop
      vertex -0.0684414 -6.95579 -7
      vertex -8 0 -7
      vertex -0.272593 -5.92945 -7
    endloop
  endfacet
  facet normal 0 0 -1
    outer loop
      vertex -8 -250 -7
      vertex -1.0718 -246 -7
      vertex -1.65317 -246.87 -7
    endloop
  endfacet
  facet normal 0 0 -1
    outer loop
      vertex -0.272593 -5.92945 -7
      vertex -8 0 -7
      vertex -0.608964 -4.93853 -7
    endloop
  endfacet
  facet normal 0 0 -1
    outer loop
      vertex -8 -250 -7
      vertex -1.65317 -246.87 -7
      vertex -2.34315 -247.657 -7
    endloop
  endfacet
  facet normal 0 0 -1
    outer loop
      vertex -0.608964 -4.93853 -7
      vertex -8 0 -7
      vertex -1.0718 -4 -7
    endloop
  endfacet
  facet normal 0 0 -1
    outer loop
      vertex -8 -250 -7
      vertex -2.34315 -247.657 -7
      vertex -3.12991 -248.347 -7
    endloop
  endfacet
  facet normal 0 0 -1
    outer loop
      vertex -1.0718 -4 -7
      vertex -8 0 -7
      vertex -1.65317 -3.12991 -7
    endloop
  endfacet
  facet normal 0 0 -1
    outer loop
      vertex -8 -250 -7
      vertex -3.12991 -248.347 -7
      vertex -4 -248.928 -7
    endloop
  endfacet
  facet normal 0 0 -1
    outer loop
      vertex -1.65317 -3.12991 -7
      vertex -8 0 -7
      vertex -2.34315 -2.34315 -7
    endloop
  endfacet
  facet normal 0 0 -1
    outer loop
      vertex -8 -250 -7
      vertex -4 -248.928 -7
      vertex -4.93853 -249.391 -7
    endloop
  endfacet
  facet normal 0 0 -1
    outer loop
      vertex -2.34315 -2.34315 -7
      vertex -8 0 -7
      vertex -3.12991 -1.65317 -7
    endloop
  endfacet
  facet normal 0 0 -1
    outer loop
      vertex -8 -250 -7
      vertex -4.93853 -249.391 -7
      vertex -5.92945 -249.727 -7
    endloop
  endfacet
  facet normal 0 0 -1
    outer loop
      vertex -3.12991 -1.65317 -7
      vertex -8 0 -7
      vertex -4 -1.0718 -7
    endloop
  endfacet
  facet normal 0 0 -1
    outer loop
      vertex -8 -250 -7
      vertex -5.92945 -249.727 -7
      vertex -6.95579 -249.932 -7
    endloop
  endfacet
  facet normal 0 0 -1
    outer loop
      vertex -4 -1.0718 -7
      vertex -8 0 -7
      vertex -4.93853 -0.608964 -7
    endloop
  endfacet
  facet normal -0 0 -1
    outer loop
      vertex 0 -242 -7
      vertex -8 -250 -7
      vertex -170 -242 -7
    endloop
  endfacet
  facet normal 0 0 -1
    outer loop
      vertex -4.93853 -0.608964 -7
      vertex -8 0 -7
      vertex -5.92945 -0.272593 -7
    endloop
  endfacet
  facet normal 0 0 -1
    outer loop
      vertex -5.92945 -0.272593 -7
      vertex -8 0 -7
      vertex -6.95579 -0.0684414 -7
    endloop
  endfacet
  facet normal 0 0 -1
    outer loop
      vertex -170 -242 -7
      vertex -8 -250 -7
      vertex -162 -250 -7
    endloop
  endfacet
  facet normal 0 0 -1
    outer loop
      vertex -170 -8 -7
      vertex 0 -16 -7
      vertex -170 -242 -7
    endloop
  endfacet
  facet normal 0 0 -1
    outer loop
      vertex -170 -242 -7
      vertex -162 -250 -7
      vertex -163.044 -249.932 -7
    endloop
  endfacet
  facet normal 0 0 -1
    outer loop
      vertex 0 -16 -7
      vertex -170 -8 -7
      vertex -16 0 -7
    endloop
  endfacet
  facet normal 0 0 -1
    outer loop
      vertex -170 -242 -7
      vertex -163.044 -249.932 -7
      vertex -164.071 -249.727 -7
    endloop
  endfacet
  facet normal -0 0 -1
    outer loop
      vertex -16 0 -7
      vertex -170 -8 -7
      vertex -162 0 -7
    endloop
  endfacet
  facet normal 0 0 -1
    outer loop
      vertex -170 -242 -7
      vertex -164.071 -249.727 -7
      vertex -165.061 -249.391 -7
    endloop
  endfacet
  facet normal 0 0 -1
    outer loop
      vertex -162 0 -7
      vertex -170 -8 -7
      vertex -163.044 -0.0684414 -7
    endloop
  endfacet
  facet normal 0 0 -1
    outer loop
      vertex -170 -242 -7
      vertex -165.061 -249.391 -7
      vertex -166 -248.928 -7
    endloop
  endfacet
  facet normal 0 0 -1
    outer loop
      vertex -163.044 -0.0684414 -7
      vertex -170 -8 -7
      vertex -164.071 -0.272593 -7
    endloop
  endfacet
  facet normal 0 0 -1
    outer loop
      vertex -170 -242 -7
      vertex -166 -248.928 -7
      vertex -166.87 -248.347 -7
    endloop
  endfacet
  facet normal 0 0 -1
    outer loop
      vertex -164.071 -0.272593 -7
      vertex -170 -8 -7
      vertex -165.061 -0.608964 -7
    endloop
  endfacet
  facet normal 0 0 -1
    outer loop
      vertex -170 -242 -7
      vertex -166.87 -248.347 -7
      vertex -167.657 -247.657 -7
    endloop
  endfacet
  facet normal 0 0 -1
    outer loop
      vertex -165.061 -0.608964 -7
      vertex -170 -8 -7
      vertex -166 -1.0718 -7
    endloop
  endfacet
  facet normal 0 0 -1
    outer loop
      vertex -170 -242 -7
      vertex -167.657 -247.657 -7
      vertex -168.347 -246.87 -7
    endloop
  endfacet
  facet normal 0 0 -1
    outer loop
      vertex -166 -1.0718 -7
      vertex -170 -8 -7
      vertex -166.87 -1.65317 -7
    endloop
  endfacet
  facet normal 0 0 -1
    outer loop
      vertex -170 -242 -7
      vertex -168.347 -246.87 -7
      vertex -168.928 -246 -7
    endloop
  endfacet
  facet normal 0 0 -1
    outer loop
      vertex -166.87 -1.65317 -7
      vertex -170 -8 -7
      vertex -167.657 -2.34315 -7
    endloop
  endfacet
  facet normal 0 0 -1
    outer loop
      vertex -170 -242 -7
      vertex -168.928 -246 -7
      vertex -169.391 -245.061 -7
    endloop
  endfacet
  facet normal 0 0 -1
    outer loop
      vertex -167.657 -2.34315 -7
      vertex -170 -8 -7
      vertex -168.347 -3.12991 -7
    endloop
  endfacet
  facet normal 0 0 -1
    outer loop
      vertex -170 -242 -7
      vertex -169.391 -245.061 -7
      vertex -169.727 -244.071 -7
    endloop
  endfacet
  facet normal 0 0 -1
    outer loop
      vertex -168.347 -3.12991 -7
      vertex -170 -8 -7
      vertex -168.928 -4 -7
    endloop
  endfacet
  facet normal 0 0 -1
    outer loop
      vertex -170 -242 -7
      vertex -169.727 -244.071 -7
      vertex -169.932 -243.044 -7
    endloop
  endfacet
  facet normal 0 0 -1
    outer loop
      vertex -168.928 -4 -7
      vertex -170 -8 -7
      vertex -169.391 -4.93853 -7
    endloop
  endfacet
  facet normal 0 0 -1
    outer loop
      vertex -169.391 -4.93853 -7
      vertex -170 -8 -7
      vertex -169.727 -5.92945 -7
    endloop
  endfacet
  facet normal 0 0 -1
    outer loop
      vertex -169.727 -5.92945 -7
      vertex -170 -8 -7
      vertex -169.932 -6.95579 -7
    endloop
  endfacet
  facet normal 0.321439 0.94693 -0
    outer loop
      vertex -4.93853 -0.608964 -7
      vertex -5.92945 -0.272593 0
      vertex -4.93853 -0.608964 0
    endloop
  endfacet
  facet normal 0.321439 0.94693 0
    outer loop
      vertex -5.92945 -0.272593 0
      vertex -4.93853 -0.608964 -7
      vertex -5.92945 -0.272593 -7
    endloop
  endfacet
  facet normal -0.442114 0.896959 0
    outer loop
      vertex -165.061 -0.608964 -7
      vertex -166 -1.0718 0
      vertex -165.061 -0.608964 0
    endloop
  endfacet
  facet normal -0.442114 0.896959 0
    outer loop
      vertex -166 -1.0718 0
      vertex -165.061 -0.608964 -7
      vertex -166 -1.0718 -7
    endloop
  endfacet
  facet normal -0.44224 -0.896897 0
    outer loop
      vertex -166 -248.928 -7
      vertex -165.061 -249.391 0
      vertex -166 -248.928 0
    endloop
  endfacet
  facet normal -0.44224 -0.896897 -0
    outer loop
      vertex -165.061 -249.391 0
      vertex -166 -248.928 -7
      vertex -165.061 -249.391 -7
    endloop
  endfacet
  facet normal -0.321706 0.946839 0
    outer loop
      vertex -164.071 -0.272593 -7
      vertex -165.061 -0.608964 0
      vertex -164.071 -0.272593 0
    endloop
  endfacet
  facet normal -0.321706 0.946839 0
    outer loop
      vertex -165.061 -0.608964 0
      vertex -164.071 -0.272593 -7
      vertex -165.061 -0.608964 -7
    endloop
  endfacet
  facet normal -0.831635 0.555322 0
    outer loop
      vertex -168.928 -4 -7
      vertex -168.347 -3.12991 0
      vertex -168.347 -3.12991 -7
    endloop
  endfacet
  facet normal -0.831635 0.555322 0
    outer loop
      vertex -168.347 -3.12991 0
      vertex -168.928 -4 -7
      vertex -168.928 -4 0
    endloop
  endfacet
  facet normal 0.0649834 -0.997886 0
    outer loop
      vertex -8 -250 -7
      vertex -6.95579 -249.932 0
      vertex -8 -250 0
    endloop
  endfacet
  facet normal 0.0649834 -0.997886 0
    outer loop
      vertex -6.95579 -249.932 0
      vertex -8 -250 -7
      vertex -6.95579 -249.932 -7
    endloop
  endfacet
  facet normal 0.442292 0.896871 -0
    outer loop
      vertex -4 -1.0718 -7
      vertex -4.93853 -0.608964 0
      vertex -4 -1.0718 0
    endloop
  endfacet
  facet normal 0.442292 0.896871 0
    outer loop
      vertex -4.93853 -0.608964 0
      vertex -4 -1.0718 -7
      vertex -4.93853 -0.608964 -7
    endloop
  endfacet
  facet normal -0.997886 -0.0649964 0
    outer loop
      vertex -169.932 -243.044 -7
      vertex -170 -242 0
      vertex -170 -242 -7
    endloop
  endfacet
  facet normal -0.997886 -0.0649964 0
    outer loop
      vertex -170 -242 0
      vertex -169.932 -243.044 -7
      vertex -169.932 -243.044 0
    endloop
  endfacet
  facet normal -0.896809 0.442418 0
    outer loop
      vertex -169.391 -4.93853 -7
      vertex -168.928 -4 0
      vertex -168.928 -4 -7
    endloop
  endfacet
  facet normal -0.896809 0.442418 0
    outer loop
      vertex -168.928 -4 0
      vertex -169.391 -4.93853 -7
      vertex -169.391 -4.93853 0
    endloop
  endfacet
  facet normal 0.19509 0.980785 -0
    outer loop
      vertex -5.92945 -0.272593 -7
      vertex -6.95579 -0.0684414 0
      vertex -5.92945 -0.272593 0
    endloop
  endfacet
  facet normal 0.19509 0.980785 0
    outer loop
      vertex -6.95579 -0.0684414 0
      vertex -5.92945 -0.272593 -7
      vertex -6.95579 -0.0684414 -7
    endloop
  endfacet
  facet normal -0.947038 0.321121 0
    outer loop
      vertex -169.727 -5.92945 -7
      vertex -169.391 -4.93853 0
      vertex -169.391 -4.93853 -7
    endloop
  endfacet
  facet normal -0.947038 0.321121 0
    outer loop
      vertex -169.391 -4.93853 0
      vertex -169.727 -5.92945 -7
      vertex -169.727 -5.92945 0
    endloop
  endfacet
  facet normal 0.980809 -0.19497 0
    outer loop
      vertex -0.272593 -244.071 0
      vertex -0.0684414 -243.044 -7
      vertex -0.0684414 -243.044 0
    endloop
  endfacet
  facet normal 0.980809 -0.19497 0
    outer loop
      vertex -0.0684414 -243.044 -7
      vertex -0.272593 -244.071 0
      vertex -0.272593 -244.071 -7
    endloop
  endfacet
  facet normal -0.751826 0.659362 0
    outer loop
      vertex -168.347 -3.12991 -7
      vertex -167.657 -2.34315 0
      vertex -167.657 -2.34315 -7
    endloop
  endfacet
  facet normal -0.751826 0.659362 0
    outer loop
      vertex -167.657 -2.34315 0
      vertex -168.347 -3.12991 -7
      vertex -168.347 -3.12991 0
    endloop
  endfacet
  facet normal 0.659351 0.751835 -0
    outer loop
      vertex -2.34315 -2.34315 -7
      vertex -3.12991 -1.65317 0
      vertex -2.34315 -2.34315 0
    endloop
  endfacet
  facet normal 0.659351 0.751835 0
    outer loop
      vertex -3.12991 -1.65317 0
      vertex -2.34315 -2.34315 -7
      vertex -3.12991 -1.65317 -7
    endloop
  endfacet
  facet normal 0.831472 0.555567 0
    outer loop
      vertex -1.0718 -4 0
      vertex -1.65317 -3.12991 -7
      vertex -1.65317 -3.12991 0
    endloop
  endfacet
  facet normal 0.831472 0.555567 0
    outer loop
      vertex -1.65317 -3.12991 -7
      vertex -1.0718 -4 0
      vertex -1.0718 -4 -7
    endloop
  endfacet
  facet normal 0.442418 -0.896809 0
    outer loop
      vertex -4.93853 -249.391 -7
      vertex -4 -248.928 0
      vertex -4.93853 -249.391 0
    endloop
  endfacet
  facet normal 0.442418 -0.896809 0
    outer loop
      vertex -4 -248.928 0
      vertex -4.93853 -249.391 -7
      vertex -4 -248.928 -7
    endloop
  endfacet
  facet normal -0.555606 0.831446 0
    outer loop
      vertex -166 -1.0718 -7
      vertex -166.87 -1.65317 0
      vertex -166 -1.0718 0
    endloop
  endfacet
  facet normal -0.555606 0.831446 0
    outer loop
      vertex -166.87 -1.65317 0
      vertex -166 -1.0718 -7
      vertex -166.87 -1.65317 -7
    endloop
  endfacet
  facet normal -0.98063 0.19587 0
    outer loop
      vertex -169.932 -6.95579 -7
      vertex -169.727 -5.92945 0
      vertex -169.727 -5.92945 -7
    endloop
  endfacet
  facet normal -0.98063 0.19587 0
    outer loop
      vertex -169.727 -5.92945 0
      vertex -169.932 -6.95579 -7
      vertex -169.932 -6.95579 0
    endloop
  endfacet
  facet normal -0.195749 -0.980654 0
    outer loop
      vertex -164.071 -249.727 -7
      vertex -163.044 -249.932 0
      vertex -164.071 -249.727 0
    endloop
  endfacet
  facet normal -0.195749 -0.980654 -0
    outer loop
      vertex -163.044 -249.932 0
      vertex -164.071 -249.727 -7
      vertex -163.044 -249.932 -7
    endloop
  endfacet
  facet normal -0.0649964 -0.997886 0
    outer loop
      vertex -163.044 -249.932 -7
      vertex -162 -250 0
      vertex -163.044 -249.932 0
    endloop
  endfacet
  facet normal -0.0649964 -0.997886 -0
    outer loop
      vertex -162 -250 0
      vertex -163.044 -249.932 -7
      vertex -162 -250 -7
    endloop
  endfacet
  facet normal -0.19497 0.980809 0
    outer loop
      vertex -163.044 -0.0684414 -7
      vertex -164.071 -0.272593 0
      vertex -163.044 -0.0684414 0
    endloop
  endfacet
  facet normal -0.19497 0.980809 0
    outer loop
      vertex -164.071 -0.272593 0
      vertex -163.044 -0.0684414 -7
      vertex -164.071 -0.272593 -7
    endloop
  endfacet
  facet normal -0.980654 -0.195749 0
    outer loop
      vertex -169.727 -244.071 -7
      vertex -169.932 -243.044 0
      vertex -169.932 -243.044 -7
    endloop
  endfacet
  facet normal -0.980654 -0.195749 0
    outer loop
      vertex -169.932 -243.044 0
      vertex -169.727 -244.071 -7
      vertex -169.727 -244.071 0
    endloop
  endfacet
  facet normal -0.0654165 0.997858 0
    outer loop
      vertex -162 0 -7
      vertex -163.044 -0.0684414 0
      vertex -162 0 0
    endloop
  endfacet
  facet normal -0.0654165 0.997858 0
    outer loop
      vertex -163.044 -0.0684414 0
      vertex -162 0 -7
      vertex -163.044 -0.0684414 -7
    endloop
  endfacet
  facet normal -0.555362 -0.831609 0
    outer loop
      vertex -166.87 -248.347 -7
      vertex -166 -248.928 0
      vertex -166.87 -248.347 0
    endloop
  endfacet
  facet normal -0.555362 -0.831609 -0
    outer loop
      vertex -166 -248.928 0
      vertex -166.87 -248.347 -7
      vertex -166 -248.928 -7
    endloop
  endfacet
endsolid OpenSCAD_Model
