solid OpenSCAD_Model
  facet normal 1 -0 0
    outer loop
      vertex 3 -16 0
      vertex 3 3 -11
      vertex 3 3 0
    endloop
  endfacet
  facet normal 1 0 0
    outer loop
      vertex 3 3 -11
      vertex 3 -16 0
      vertex 3 -16 -11
    endloop
  endfacet
  facet normal 0 0 1
    outer loop
      vertex 3 3 0
      vertex 0 0 0
      vertex 3 -16 0
    endloop
  endfacet
  facet normal -0 0 1
    outer loop
      vertex -16 3 0
      vertex 0 0 0
      vertex 3 3 0
    endloop
  endfacet
  facet normal 0 0 1
    outer loop
      vertex 0 0 0
      vertex -16 3 0
      vertex -16 0 0
    endloop
  endfacet
  facet normal 0 0 1
    outer loop
      vertex 3 -16 0
      vertex 0 0 0
      vertex 0 -16 0
    endloop
  endfacet
  facet normal 0 0 -1
    outer loop
      vertex -3.5 -3.5 -11
      vertex 3 -16 -11
      vertex -3.5 -16 -11
    endloop
  endfacet
  facet normal 0 0 -1
    outer loop
      vertex 3 -16 -11
      vertex -3.5 -3.5 -11
      vertex 3 3 -11
    endloop
  endfacet
  facet normal 0 0 -1
    outer loop
      vertex -16 3 -11
      vertex -3.5 -3.5 -11
      vertex -16 -3.5 -11
    endloop
  endfacet
  facet normal 0 0 -1
    outer loop
      vertex -3.5 -3.5 -11
      vertex -16 3 -11
      vertex 3 3 -11
    endloop
  endfacet
  facet normal -1 0 0
    outer loop
      vertex -16 3 -11
      vertex -16 0 -8
      vertex -16 3 0
    endloop
  endfacet
  facet normal -1 0 0
    outer loop
      vertex -16 -3.5 -11
      vertex -16 0 -8
      vertex -16 3 -11
    endloop
  endfacet
  facet normal -1 -0 0
    outer loop
      vertex -16 0 -8
      vertex -16 -3.5 -11
      vertex -16 -3.5 -8
    endloop
  endfacet
  facet normal -1 -0 0
    outer loop
      vertex -16 3 0
      vertex -16 0 -8
      vertex -16 0 0
    endloop
  endfacet
  facet normal 0 1 -0
    outer loop
      vertex 3 3 -11
      vertex -16 3 0
      vertex 3 3 0
    endloop
  endfacet
  facet normal 0 1 0
    outer loop
      vertex -16 3 0
      vertex 3 3 -11
      vertex -16 3 -11
    endloop
  endfacet
  facet normal 0 -1 0
    outer loop
      vertex -16 0 -8
      vertex 0 0 0
      vertex -16 0 0
    endloop
  endfacet
  facet normal 0 -1 -0
    outer loop
      vertex 0 0 0
      vertex -16 0 -8
      vertex 0 0 -8
    endloop
  endfacet
  facet normal -1 0 0
    outer loop
      vertex 0 -16 -8
      vertex 0 0 0
      vertex 0 0 -8
    endloop
  endfacet
  facet normal -1 -0 0
    outer loop
      vertex 0 0 0
      vertex 0 -16 -8
      vertex 0 -16 0
    endloop
  endfacet
  facet normal 0 -1 0
    outer loop
      vertex -3.5 -16 -8
      vertex -3.5 -16 -11
      vertex 0 -16 -8
    endloop
  endfacet
  facet normal 0 -1 0
    outer loop
      vertex 0 -16 -8
      vertex 3 -16 0
      vertex 0 -16 0
    endloop
  endfacet
  facet normal 0 -1 0
    outer loop
      vertex 0 -16 -8
      vertex 3 -16 -11
      vertex 3 -16 0
    endloop
  endfacet
  facet normal 0 -1 0
    outer loop
      vertex 3 -16 -11
      vertex 0 -16 -8
      vertex -3.5 -16 -11
    endloop
  endfacet
  facet normal 0 0 1
    outer loop
      vertex 0 0 -8
      vertex -3.5 -3.5 -8
      vertex 0 -16 -8
    endloop
  endfacet
  facet normal -0 0 1
    outer loop
      vertex -16 0 -8
      vertex -3.5 -3.5 -8
      vertex 0 0 -8
    endloop
  endfacet
  facet normal 0 0 1
    outer loop
      vertex -3.5 -3.5 -8
      vertex -16 0 -8
      vertex -16 -3.5 -8
    endloop
  endfacet
  facet normal 0 0 1
    outer loop
      vertex 0 -16 -8
      vertex -3.5 -3.5 -8
      vertex -3.5 -16 -8
    endloop
  endfacet
  facet normal 0 -1 0
    outer loop
      vertex -16 -3.5 -11
      vertex -3.5 -3.5 -8
      vertex -16 -3.5 -8
    endloop
  endfacet
  facet normal 0 -1 -0
    outer loop
      vertex -3.5 -3.5 -8
      vertex -16 -3.5 -11
      vertex -3.5 -3.5 -11
    endloop
  endfacet
  facet normal -1 0 0
    outer loop
      vertex -3.5 -16 -11
      vertex -3.5 -3.5 -8
      vertex -3.5 -3.5 -11
    endloop
  endfacet
  facet normal -1 -0 0
    outer loop
      vertex -3.5 -3.5 -8
      vertex -3.5 -16 -11
      vertex -3.5 -16 -8
    endloop
  endfacet
  facet normal 1 -0 0
    outer loop
      vertex 6.6 -10.4019 -7
      vertex 6.6 -6.4 -9.1
      vertex 6.6 -6.4 -1.9
    endloop
  endfacet
  facet normal 1 0 0
    outer loop
      vertex 6.6 -6.4 -9.1
      vertex 6.6 -10.0257 -8.10842
      vertex 6.6 -10 -8.5
    endloop
  endfacet
  facet normal 1 0 0
    outer loop
      vertex 6.6 -6.4 -9.1
      vertex 6.6 -10.1022 -7.72354
      vertex 6.6 -10.0257 -8.10842
    endloop
  endfacet
  facet normal 1 0 0
    outer loop
      vertex 6.6 -6.4 -9.1
      vertex 6.6 -10.2284 -7.35195
      vertex 6.6 -10.1022 -7.72354
    endloop
  endfacet
  facet normal 1 0 0
    outer loop
      vertex 6.6 -6.4 -9.1
      vertex 6.6 -10.4019 -7
      vertex 6.6 -10.2284 -7.35195
    endloop
  endfacet
  facet normal 1 0 0
    outer loop
      vertex 6.6 -6.4 -1.9
      vertex 6.6 -10.6199 -6.67372
      vertex 6.6 -10.4019 -7
    endloop
  endfacet
  facet normal 1 0 0
    outer loop
      vertex 6.6 -6.4 -1.9
      vertex 6.6 -10.8787 -6.37868
      vertex 6.6 -10.6199 -6.67372
    endloop
  endfacet
  facet normal 1 0 0
    outer loop
      vertex 6.6 -6.4 -1.9
      vertex 6.6 -11.1737 -6.11994
      vertex 6.6 -10.8787 -6.37868
    endloop
  endfacet
  facet normal 1 0 0
    outer loop
      vertex 6.6 -6.4 -1.9
      vertex 6.6 -11.5 -5.90192
      vertex 6.6 -11.1737 -6.11994
    endloop
  endfacet
  facet normal 1 -0 0
    outer loop
      vertex 6.6 -13.6 -1.9
      vertex 6.6 -11.5 -5.90192
      vertex 6.6 -6.4 -1.9
    endloop
  endfacet
  facet normal 1 0 0
    outer loop
      vertex 6.6 -11.5 -5.90192
      vertex 6.6 -13.6 -1.9
      vertex 6.6 -11.852 -5.72836
    endloop
  endfacet
  facet normal 1 0 0
    outer loop
      vertex 6.6 -11.852 -5.72836
      vertex 6.6 -13.6 -1.9
      vertex 6.6 -12.2235 -5.60222
    endloop
  endfacet
  facet normal 1 0 0
    outer loop
      vertex 6.6 -12.2235 -5.60222
      vertex 6.6 -13.6 -1.9
      vertex 6.6 -12.6084 -5.52567
    endloop
  endfacet
  facet normal 1 0 0
    outer loop
      vertex 6.6 -12.6084 -5.52567
      vertex 6.6 -13.6 -1.9
      vertex 6.6 -13 -5.5
    endloop
  endfacet
  facet normal 1 0 0
    outer loop
      vertex 6.6 -13 -5.5
      vertex 6.6 -13.6 -1.9
      vertex 6.6 -13.3916 -5.52567
    endloop
  endfacet
  facet normal 1 0 0
    outer loop
      vertex 6.6 -13.3916 -5.52567
      vertex 6.6 -13.6 -1.9
      vertex 6.6 -13.6 -5.56712
    endloop
  endfacet
  facet normal 1 -0 0
    outer loop
      vertex 6.6 -10.0257 -8.89158
      vertex 6.6 -6.4 -9.1
      vertex 6.6 -10 -8.5
    endloop
  endfacet
  facet normal 1 0 0
    outer loop
      vertex 6.6 -6.4 -9.1
      vertex 6.6 -10.0257 -8.89158
      vertex 6.6 -10.0671 -9.1
    endloop
  endfacet
  facet normal -1 0 0
    outer loop
      vertex 6.6 -11.852 -11.2716
      vertex 6.6 -11.3532 -11
      vertex 6.6 -11.5 -11.0981
    endloop
  endfacet
  facet normal -1 0 0
    outer loop
      vertex 6.6 -12.2235 -11.3978
      vertex 6.6 -11.3532 -11
      vertex 6.6 -11.852 -11.2716
    endloop
  endfacet
  facet normal -1 0 0
    outer loop
      vertex 6.6 -12.6084 -11.4743
      vertex 6.6 -11.3532 -11
      vertex 6.6 -12.2235 -11.3978
    endloop
  endfacet
  facet normal -1 0 0
    outer loop
      vertex 6.6 -13 -11.5
      vertex 6.6 -11.3532 -11
      vertex 6.6 -12.6084 -11.4743
    endloop
  endfacet
  facet normal -1 0 0
    outer loop
      vertex 6.6 -13.3916 -11.4743
      vertex 6.6 -11.3532 -11
      vertex 6.6 -13 -11.5
    endloop
  endfacet
  facet normal -1 0 0
    outer loop
      vertex 6.6 -13.7765 -11.3978
      vertex 6.6 -11.3532 -11
      vertex 6.6 -13.3916 -11.4743
    endloop
  endfacet
  facet normal -1 0 0
    outer loop
      vertex 6.6 -14.1481 -11.2716
      vertex 6.6 -11.3532 -11
      vertex 6.6 -13.7765 -11.3978
    endloop
  endfacet
  facet normal -1 0 0
    outer loop
      vertex 6.6 -14.6468 -11
      vertex 6.6 -14.1481 -11.2716
      vertex 6.6 -14.5 -11.0981
    endloop
  endfacet
  facet normal -1 0 0
    outer loop
      vertex 6.6 -14.1481 -11.2716
      vertex 6.6 -14.6468 -11
      vertex 6.6 -11.3532 -11
    endloop
  endfacet
  facet normal -0 0 1
    outer loop
      vertex 5 0 0
      vertex 10.6 -20 0
      vertex 10.6 0 0
    endloop
  endfacet
  facet normal 0 0 1
    outer loop
      vertex 10.6 -20 0
      vertex 5 0 0
      vertex 5 -20 0
    endloop
  endfacet
  facet normal 0 0 -1
    outer loop
      vertex 7.19491 -12.9353 -11
      vertex 10.6 -20 -11
      vertex 7.2 -13 -11
    endloop
  endfacet
  facet normal 0 0 -1
    outer loop
      vertex 10.6 -20 -11
      vertex 7.19491 -13.0647 -11
      vertex 7.2 -13 -11
    endloop
  endfacet
  facet normal 0 0 -1
    outer loop
      vertex 10.6 -20 -11
      vertex 7.17411 -13.3291 -11
      vertex 7.19491 -13.0647 -11
    endloop
  endfacet
  facet normal 0 0 -1
    outer loop
      vertex 10.6 -20 -11
      vertex 7.15971 -13.3905 -11
      vertex 7.17411 -13.3291 -11
    endloop
  endfacet
  facet normal 0 0 -1
    outer loop
      vertex 10.6 -20 -11
      vertex 7.09417 -13.6699 -11
      vertex 7.15971 -13.3905 -11
    endloop
  endfacet
  facet normal 0 0 -1
    outer loop
      vertex 10.6 -20 -11
      vertex 6.96965 -13.992 -11
      vertex 7.09417 -13.6699 -11
    endloop
  endfacet
  facet normal 0 0 -1
    outer loop
      vertex 10.6 -20 -11
      vertex 6.95282 -14.0355 -11
      vertex 6.96965 -13.992 -11
    endloop
  endfacet
  facet normal 0 0 -1
    outer loop
      vertex 10.6 -20 -11
      vertex 6.93203 -14.0746 -11
      vertex 6.95282 -14.0355 -11
    endloop
  endfacet
  facet normal 0 0 -1
    outer loop
      vertex 10.6 -20 -11
      vertex 6.7359 -14.4434 -11
      vertex 6.93203 -14.0746 -11
    endloop
  endfacet
  facet normal 0 0 -1
    outer loop
      vertex 10.6 -20 -11
      vertex 6.6 -14.6468 -11
      vertex 6.7359 -14.4434 -11
    endloop
  endfacet
  facet normal -0 0 -1
    outer loop
      vertex 6.6 -14.6468 -11
      vertex 5 -20 -11
      vertex 6.6 -11.3532 -11
    endloop
  endfacet
  facet normal 0 0 -1
    outer loop
      vertex 5 -20 -11
      vertex 6.6 -14.6468 -11
      vertex 10.6 -20 -11
    endloop
  endfacet
  facet normal 0 0 -1
    outer loop
      vertex 7.17411 -12.6709 -11
      vertex 10.6 -20 -11
      vertex 7.19491 -12.9353 -11
    endloop
  endfacet
  facet normal 0 0 -1
    outer loop
      vertex 10.6 -20 -11
      vertex 7.17411 -12.6709 -11
      vertex 10.6 0 -11
    endloop
  endfacet
  facet normal 0 0 -1
    outer loop
      vertex 7.15971 -12.6095 -11
      vertex 10.6 0 -11
      vertex 7.17411 -12.6709 -11
    endloop
  endfacet
  facet normal 0 0 -1
    outer loop
      vertex 7.09417 -12.3301 -11
      vertex 10.6 0 -11
      vertex 7.15971 -12.6095 -11
    endloop
  endfacet
  facet normal 0 0 -1
    outer loop
      vertex 6.96965 -12.008 -11
      vertex 10.6 0 -11
      vertex 7.09417 -12.3301 -11
    endloop
  endfacet
  facet normal 0 0 -1
    outer loop
      vertex 6.95282 -11.9645 -11
      vertex 10.6 0 -11
      vertex 6.96965 -12.008 -11
    endloop
  endfacet
  facet normal 0 0 -1
    outer loop
      vertex 6.93203 -11.9254 -11
      vertex 10.6 0 -11
      vertex 6.95282 -11.9645 -11
    endloop
  endfacet
  facet normal 0 0 -1
    outer loop
      vertex 6.7359 -11.5566 -11
      vertex 10.6 0 -11
      vertex 6.93203 -11.9254 -11
    endloop
  endfacet
  facet normal 0 0 -1
    outer loop
      vertex 6.6 -11.3532 -11
      vertex 10.6 0 -11
      vertex 6.7359 -11.5566 -11
    endloop
  endfacet
  facet normal 0 0 -1
    outer loop
      vertex 6.6 -11.3532 -11
      vertex 5 0 -11
      vertex 10.6 0 -11
    endloop
  endfacet
  facet normal 0 0 -1
    outer loop
      vertex 5 0 -11
      vertex 6.6 -11.3532 -11
      vertex 5 -20 -11
    endloop
  endfacet
  facet normal -1 0 0
    outer loop
      vertex 5 -20 -11
      vertex 5 0 0
      vertex 5 0 -11
    endloop
  endfacet
  facet normal -1 -0 0
    outer loop
      vertex 5 0 0
      vertex 5 -20 -11
      vertex 5 -20 0
    endloop
  endfacet
  facet normal 0 1 -0
    outer loop
      vertex 10.6 0 -11
      vertex 5 0 0
      vertex 10.6 0 0
    endloop
  endfacet
  facet normal 0 1 0
    outer loop
      vertex 5 0 0
      vertex 10.6 0 -11
      vertex 5 0 -11
    endloop
  endfacet
  facet normal 0 -1 0
    outer loop
      vertex 5 -20 -11
      vertex 10.6 -20 0
      vertex 5 -20 0
    endloop
  endfacet
  facet normal 0 -1 -0
    outer loop
      vertex 10.6 -20 0
      vertex 5 -20 -11
      vertex 10.6 -20 -11
    endloop
  endfacet
  facet normal 0.639324 0.339996 -0.689687
    outer loop
      vertex 6.6 -11.852 -11.2716
      vertex 6.7359 -11.5566 -11
      vertex 6.93203 -11.9254 -11
    endloop
  endfacet
  facet normal 0.6394 0.339927 -0.68965
    outer loop
      vertex 6.7359 -11.5566 -11
      vertex 6.6 -11.852 -11.2716
      vertex 6.6 -11.5 -11.0981
    endloop
  endfacet
  facet normal 0.639385 0.578025 0.507025
    outer loop
      vertex 6.6 -10.8787 -6.37868
      vertex 8.4 -11.81 -7.58686
      vertex 6.6 -10.6199 -6.67372
    endloop
  endfacet
  facet normal 0.639356 0.578237 0.506819
    outer loop
      vertex 8.4 -11.81 -7.58686
      vertex 6.6 -10.8787 -6.37868
      vertex 8.4 -11.9393 -7.43934
    endloop
  endfacet
  facet normal 0.639374 0.0503001 -0.767249
    outer loop
      vertex 7.2 -13 -11
      vertex 6.6 -13 -11.5
      vertex 7.19491 -12.9353 -11
    endloop
  endfacet
  facet normal 0.639374 0.0502987 -0.767249
    outer loop
      vertex 6.6 -13 -11.5
      vertex 7.17411 -12.6709 -11
      vertex 7.19491 -12.9353 -11
    endloop
  endfacet
  facet normal 0.639354 0.050354 -0.767262
    outer loop
      vertex 7.17411 -12.6709 -11
      vertex 6.6 -13 -11.5
      vertex 6.6 -12.6084 -11.4743
    endloop
  endfacet
  facet normal 0.639373 -0.247371 -0.728018
    outer loop
      vertex 6.95282 -14.0355 -11
      vertex 6.6 -14.1481 -11.2716
      vertex 6.96965 -13.992 -11
    endloop
  endfacet
  facet normal 0.639329 0.33994 -0.689709
    outer loop
      vertex 6.95282 -11.9645 -11
      vertex 6.6 -11.852 -11.2716
      vertex 6.93203 -11.9254 -11
    endloop
  endfacet
  facet normal 0.639372 0.050275 0.767252
    outer loop
      vertex 8.4 -12.8042 -7.01283
      vertex 6.6 -12.6084 -5.52567
      vertex 8.4 -13 -7
    endloop
  endfacet
  facet normal 0.639357 0.149977 -0.754142
    outer loop
      vertex 6.6 -12.6084 -11.4743
      vertex 7.09417 -12.3301 -11
      vertex 7.15971 -12.6095 -11
    endloop
  endfacet
  facet normal 0.639395 0.149885 -0.754128
    outer loop
      vertex 7.09417 -12.3301 -11
      vertex 6.6 -12.6084 -11.4743
      vertex 6.6 -12.2235 -11.3978
    endloop
  endfacet
  facet normal 0.639327 0.689711 -0.339942
    outer loop
      vertex 8.4 -11.627 -9.1
      vertex 8.31855 -11.5515 -9.1
      vertex 8.4 -11.6142 -9.07403
    endloop
  endfacet
  facet normal 0.639379 0.24721 0.728068
    outer loop
      vertex 6.6 -11.852 -5.72836
      vertex 6.6 -12.2235 -5.60222
      vertex 8.4 -12.6118 -7.05111
    endloop
  endfacet
  facet normal 0.639374 0.0502944 0.767249
    outer loop
      vertex 6.6 -12.6084 -5.52567
      vertex 6.6 -13 -5.5
      vertex 8.4 -13 -7
    endloop
  endfacet
  facet normal 0.639375 0.427166 0.639319
    outer loop
      vertex 6.6 -11.1737 -6.11994
      vertex 6.6 -11.5 -5.90192
      vertex 8.4 -12.25 -7.20096
    endloop
  endfacet
  facet normal 0.639372 0.247152 0.728093
    outer loop
      vertex 8.4 -12.426 -7.11418
      vertex 6.6 -11.852 -5.72836
      vertex 8.4 -12.6118 -7.05111
    endloop
  endfacet
  facet normal 0.639353 0.767275 -0.0501615
    outer loop
      vertex 8.4 -11.5128 -8.69579
      vertex 6.6 -10.0257 -8.89158
      vertex 8.4 -11.5 -8.5
    endloop
  endfacet
  facet normal 0.63939 -0.427203 -0.63928
    outer loop
      vertex 6.7359 -14.4434 -11
      vertex 6.6 -14.6468 -11
      vertex 6.6 -14.5 -11.0981
    endloop
  endfacet
  facet normal 0.639366 0.507008 0.578061
    outer loop
      vertex 6.6 -11.1737 -6.11994
      vertex 8.4 -11.9393 -7.43934
      vertex 6.6 -10.8787 -6.37868
    endloop
  endfacet
  facet normal 0.639391 0.5068 0.578215
    outer loop
      vertex 8.4 -11.9393 -7.43934
      vertex 6.6 -11.1737 -6.11994
      vertex 8.4 -12.0869 -7.30997
    endloop
  endfacet
  facet normal 0.639361 -0.24726 -0.728066
    outer loop
      vertex 6.6 -13.7765 -11.3978
      vertex 6.96965 -13.992 -11
      vertex 6.6 -14.1481 -11.2716
    endloop
  endfacet
  facet normal 0.639399 -0.247184 -0.728059
    outer loop
      vertex 6.96965 -13.992 -11
      vertex 6.6 -13.7765 -11.3978
      vertex 7.09417 -13.6699 -11
    endloop
  endfacet
  facet normal 0.639385 -0.33997 -0.689643
    outer loop
      vertex 6.93203 -14.0746 -11
      vertex 6.6 -14.1481 -11.2716
      vertex 6.95282 -14.0355 -11
    endloop
  endfacet
  facet normal 0.639385 0.689642 0.339971
    outer loop
      vertex 6.6 -10.2284 -7.35195
      vertex 6.6 -10.4019 -7
      vertex 8.4 -11.701 -7.75
    endloop
  endfacet
  facet normal 0.639377 -0.247134 0.728095
    outer loop
      vertex 8.4 -13.3882 -7.05111
      vertex 7.41814 -13.6 -6.26078
      vertex 7.89832 -13.6 -6.68245
    endloop
  endfacet
  facet normal 0.639374 -0.0502944 0.767249
    outer loop
      vertex 6.6 -13 -5.5
      vertex 6.6 -13.3916 -5.52567
      vertex 8.4 -13 -7
    endloop
  endfacet
  facet normal 0.639355 0.754121 0.150088
    outer loop
      vertex 8.4 -11.5128 -8.30421
      vertex 6.6 -10.0257 -8.10842
      vertex 8.4 -11.5511 -8.11177
    endloop
  endfacet
  facet normal 0.639372 -0.050275 0.767252
    outer loop
      vertex 8.4 -13 -7
      vertex 6.6 -13.3916 -5.52567
      vertex 8.4 -13.1958 -7.01283
    endloop
  endfacet
  facet normal 0.639388 0.639316 0.427151
    outer loop
      vertex 6.6 -10.4019 -7
      vertex 6.6 -10.6199 -6.67372
      vertex 8.4 -11.701 -7.75
    endloop
  endfacet
  facet normal 0.639373 0.340031 0.689623
    outer loop
      vertex 8.4 -12.25 -7.20096
      vertex 6.6 -11.852 -5.72836
      vertex 8.4 -12.426 -7.11418
    endloop
  endfacet
  facet normal 0.639454 -0.339793 0.689666
    outer loop
      vertex 8.4 -13.574 -7.11418
      vertex 8.31855 -13.6 -7.05147
      vertex 8.4 -13.6 -7.12699
    endloop
  endfacet
  facet normal 0.639373 0.728054 0.247263
    outer loop
      vertex 6.6 -10.1022 -7.72354
      vertex 6.6 -10.2284 -7.35195
      vertex 8.4 -11.5511 -8.11177
    endloop
  endfacet
  facet normal 0.639429 -0.247137 0.728048
    outer loop
      vertex 8.4 -13.3882 -7.05111
      vertex 8.31855 -13.6 -7.05147
      vertex 8.4 -13.574 -7.11418
    endloop
  endfacet
  facet normal 0.639375 -0.247116 0.728103
    outer loop
      vertex 8.31855 -13.6 -7.05147
      vertex 8.4 -13.3882 -7.05111
      vertex 7.89832 -13.6 -6.68245
    endloop
  endfacet
  facet normal 0.639374 0.754144 0.149896
    outer loop
      vertex 6.6 -10.0257 -8.10842
      vertex 6.6 -10.1022 -7.72354
      vertex 8.4 -11.5511 -8.11177
    endloop
  endfacet
  facet normal 0.639354 -0.050354 -0.767262
    outer loop
      vertex 6.6 -13 -11.5
      vertex 7.17411 -13.3291 -11
      vertex 6.6 -13.3916 -11.4743
    endloop
  endfacet
  facet normal 0.639374 -0.0502987 -0.767249
    outer loop
      vertex 7.17411 -13.3291 -11
      vertex 6.6 -13 -11.5
      vertex 7.19491 -13.0647 -11
    endloop
  endfacet
  facet normal 0.639374 -0.0503001 -0.767249
    outer loop
      vertex 7.19491 -13.0647 -11
      vertex 6.6 -13 -11.5
      vertex 7.2 -13 -11
    endloop
  endfacet
  facet normal 0.63936 0.149948 -0.754145
    outer loop
      vertex 7.17411 -12.6709 -11
      vertex 6.6 -12.6084 -11.4743
      vertex 7.15971 -12.6095 -11
    endloop
  endfacet
  facet normal 0.639399 0.247184 -0.728059
    outer loop
      vertex 6.6 -12.2235 -11.3978
      vertex 6.96965 -12.008 -11
      vertex 7.09417 -12.3301 -11
    endloop
  endfacet
  facet normal 0.639328 0.247329 -0.728072
    outer loop
      vertex 6.96965 -12.008 -11
      vertex 6.6 -12.2235 -11.3978
      vertex 6.6 -11.852 -11.2716
    endloop
  endfacet
  facet normal 0.639403 -0.340004 -0.689609
    outer loop
      vertex 6.6 -14.1481 -11.2716
      vertex 6.7359 -14.4434 -11
      vertex 6.6 -14.5 -11.0981
    endloop
  endfacet
  facet normal 0.639379 -0.340025 -0.689621
    outer loop
      vertex 6.7359 -14.4434 -11
      vertex 6.6 -14.1481 -11.2716
      vertex 6.93203 -14.0746 -11
    endloop
  endfacet
  facet normal 0.63939 0.427203 -0.63928
    outer loop
      vertex 6.7359 -11.5566 -11
      vertex 6.6 -11.5 -11.0981
      vertex 6.6 -11.3532 -11
    endloop
  endfacet
  facet normal 0.639388 0.639316 0.427151
    outer loop
      vertex 8.4 -11.701 -7.75
      vertex 6.6 -10.6199 -6.67372
      vertex 8.4 -11.81 -7.58686
    endloop
  endfacet
  facet normal 0.639373 0.340031 0.689623
    outer loop
      vertex 6.6 -11.5 -5.90192
      vertex 6.6 -11.852 -5.72836
      vertex 8.4 -12.25 -7.20096
    endloop
  endfacet
  facet normal 0.639374 -0.150014 0.754119
    outer loop
      vertex 6.6 -13.3916 -5.52567
      vertex 7.41814 -13.6 -6.26078
      vertex 8.4 -13.3882 -7.05111
    endloop
  endfacet
  facet normal 0.63938 -0.149992 0.754119
    outer loop
      vertex 7.41814 -13.6 -6.26078
      vertex 6.6 -13.3916 -5.52567
      vertex 6.6 -13.6 -5.56712
    endloop
  endfacet
  facet normal 0.63937 0.728208 -0.246818
    outer loop
      vertex 7.89832 -11.1824 -9.1
      vertex 7.41814 -10.7608 -9.1
      vertex 8.4 -11.5511 -8.88823
    endloop
  endfacet
  facet normal 0.639395 -0.149885 -0.754128
    outer loop
      vertex 6.6 -13.3916 -11.4743
      vertex 7.09417 -13.6699 -11
      vertex 6.6 -13.7765 -11.3978
    endloop
  endfacet
  facet normal 0.639357 -0.149977 -0.754142
    outer loop
      vertex 7.09417 -13.6699 -11
      vertex 6.6 -13.3916 -11.4743
      vertex 7.15971 -13.3905 -11
    endloop
  endfacet
  facet normal 1 0 0
    outer loop
      vertex 8.4 -13.6 -9.1
      vertex 8.4 -11.5 -8.5
      vertex 8.4 -11.5128 -8.30421
    endloop
  endfacet
  facet normal 1 0 0
    outer loop
      vertex 8.4 -13.6 -9.1
      vertex 8.4 -11.5128 -8.30421
      vertex 8.4 -11.5511 -8.11177
    endloop
  endfacet
  facet normal 1 0 0
    outer loop
      vertex 8.4 -11.5 -8.5
      vertex 8.4 -13.6 -9.1
      vertex 8.4 -11.5128 -8.69579
    endloop
  endfacet
  facet normal 1 0 0
    outer loop
      vertex 8.4 -13.6 -9.1
      vertex 8.4 -11.5511 -8.11177
      vertex 8.4 -11.6142 -7.92598
    endloop
  endfacet
  facet normal 1 0 0
    outer loop
      vertex 8.4 -11.5128 -8.69579
      vertex 8.4 -13.6 -9.1
      vertex 8.4 -11.5511 -8.88823
    endloop
  endfacet
  facet normal 1 0 -0
    outer loop
      vertex 8.4 -11.627 -9.1
      vertex 8.4 -11.5511 -8.88823
      vertex 8.4 -13.6 -9.1
    endloop
  endfacet
  facet normal 1 0 0
    outer loop
      vertex 8.4 -13.6 -9.1
      vertex 8.4 -11.6142 -7.92598
      vertex 8.4 -11.701 -7.75
    endloop
  endfacet
  facet normal 1 0 0
    outer loop
      vertex 8.4 -13.6 -9.1
      vertex 8.4 -11.701 -7.75
      vertex 8.4 -11.81 -7.58686
    endloop
  endfacet
  facet normal 1 0 0
    outer loop
      vertex 8.4 -13.6 -9.1
      vertex 8.4 -11.81 -7.58686
      vertex 8.4 -11.9393 -7.43934
    endloop
  endfacet
  facet normal 1 0 0
    outer loop
      vertex 8.4 -13.6 -9.1
      vertex 8.4 -11.9393 -7.43934
      vertex 8.4 -12.0869 -7.30997
    endloop
  endfacet
  facet normal 1 0 0
    outer loop
      vertex 8.4 -13.6 -9.1
      vertex 8.4 -12.0869 -7.30997
      vertex 8.4 -12.25 -7.20096
    endloop
  endfacet
  facet normal 1 0 0
    outer loop
      vertex 8.4 -13.6 -9.1
      vertex 8.4 -12.25 -7.20096
      vertex 8.4 -12.426 -7.11418
    endloop
  endfacet
  facet normal 1 0 0
    outer loop
      vertex 8.4 -13.6 -9.1
      vertex 8.4 -12.426 -7.11418
      vertex 8.4 -12.6118 -7.05111
    endloop
  endfacet
  facet normal 1 0 0
    outer loop
      vertex 8.4 -13.6 -9.1
      vertex 8.4 -12.6118 -7.05111
      vertex 8.4 -12.8042 -7.01283
    endloop
  endfacet
  facet normal 1 0 0
    outer loop
      vertex 8.4 -13.6 -9.1
      vertex 8.4 -12.8042 -7.01283
      vertex 8.4 -13 -7
    endloop
  endfacet
  facet normal 1 0 0
    outer loop
      vertex 8.4 -13.6 -9.1
      vertex 8.4 -13 -7
      vertex 8.4 -13.1958 -7.01283
    endloop
  endfacet
  facet normal 1 0 0
    outer loop
      vertex 8.4 -13.6 -9.1
      vertex 8.4 -13.1958 -7.01283
      vertex 8.4 -13.3882 -7.05111
    endloop
  endfacet
  facet normal 1 0 0
    outer loop
      vertex 8.4 -13.6 -7.12699
      vertex 8.4 -13.3882 -7.05111
      vertex 8.4 -13.574 -7.11418
    endloop
  endfacet
  facet normal 1 0 0
    outer loop
      vertex 8.4 -13.3882 -7.05111
      vertex 8.4 -13.6 -7.12699
      vertex 8.4 -13.6 -9.1
    endloop
  endfacet
  facet normal 1 0 0
    outer loop
      vertex 8.4 -11.5511 -8.88823
      vertex 8.4 -11.627 -9.1
      vertex 8.4 -11.6142 -9.07403
    endloop
  endfacet
  facet normal 0.639386 0.427252 0.639251
    outer loop
      vertex 8.4 -12.0869 -7.30997
      vertex 6.6 -11.1737 -6.11994
      vertex 8.4 -12.25 -7.20096
    endloop
  endfacet
  facet normal 0.639378 0.149982 0.754123
    outer loop
      vertex 6.6 -12.2235 -5.60222
      vertex 6.6 -12.6084 -5.52567
      vertex 8.4 -12.6118 -7.05111
    endloop
  endfacet
  facet normal 0.639331 0.247355 -0.72806
    outer loop
      vertex 6.96965 -12.008 -11
      vertex 6.6 -11.852 -11.2716
      vertex 6.95282 -11.9645 -11
    endloop
  endfacet
  facet normal 0.63936 -0.149948 -0.754145
    outer loop
      vertex 7.15971 -13.3905 -11
      vertex 6.6 -13.3916 -11.4743
      vertex 7.17411 -13.3291 -11
    endloop
  endfacet
  facet normal 0.639359 0.754126 -0.150047
    outer loop
      vertex 7.41814 -10.7608 -9.1
      vertex 6.6 -10.0257 -8.89158
      vertex 8.4 -11.5511 -8.88823
    endloop
  endfacet
  facet normal 0.63942 0.754124 -0.149797
    outer loop
      vertex 6.6 -10.0257 -8.89158
      vertex 7.41814 -10.7608 -9.1
      vertex 6.6 -10.0671 -9.1
    endloop
  endfacet
  facet normal 0.639372 0.767247 -0.0503556
    outer loop
      vertex 8.4 -11.5 -8.5
      vertex 6.6 -10.0257 -8.89158
      vertex 6.6 -10 -8.5
    endloop
  endfacet
  facet normal 0.639372 0.150039 0.754116
    outer loop
      vertex 8.4 -12.6118 -7.05111
      vertex 6.6 -12.6084 -5.52567
      vertex 8.4 -12.8042 -7.01283
    endloop
  endfacet
  facet normal 0.639372 -0.150039 0.754116
    outer loop
      vertex 8.4 -13.1958 -7.01283
      vertex 6.6 -13.3916 -5.52567
      vertex 8.4 -13.3882 -7.05111
    endloop
  endfacet
  facet normal 0.639326 0.728094 -0.24727
    outer loop
      vertex 8.31855 -11.5515 -9.1
      vertex 8.4 -11.5511 -8.88823
      vertex 8.4 -11.6142 -9.07403
    endloop
  endfacet
  facet normal 0.639421 0.727998 -0.247306
    outer loop
      vertex 8.4 -11.5511 -8.88823
      vertex 8.31855 -11.5515 -9.1
      vertex 7.89832 -11.1824 -9.1
    endloop
  endfacet
  facet normal 0.639355 0.754121 -0.150088
    outer loop
      vertex 8.4 -11.5511 -8.88823
      vertex 6.6 -10.0257 -8.89158
      vertex 8.4 -11.5128 -8.69579
    endloop
  endfacet
  facet normal 0.639369 0.68958 0.340127
    outer loop
      vertex 8.4 -11.6142 -7.92598
      vertex 6.6 -10.2284 -7.35195
      vertex 8.4 -11.701 -7.75
    endloop
  endfacet
  facet normal 0.639353 0.767275 0.0501615
    outer loop
      vertex 8.4 -11.5 -8.5
      vertex 6.6 -10.0257 -8.10842
      vertex 8.4 -11.5128 -8.30421
    endloop
  endfacet
  facet normal 0.639372 0.767247 0.0503556
    outer loop
      vertex 6.6 -10 -8.5
      vertex 6.6 -10.0257 -8.10842
      vertex 8.4 -11.5 -8.5
    endloop
  endfacet
  facet normal 0.639374 0.728051 0.247269
    outer loop
      vertex 8.4 -11.5511 -8.11177
      vertex 6.6 -10.2284 -7.35195
      vertex 8.4 -11.6142 -7.92598
    endloop
  endfacet
  facet normal 1 -0 0
    outer loop
      vertex 10.6 -20 0
      vertex 10.6 0 -11
      vertex 10.6 0 0
    endloop
  endfacet
  facet normal 1 0 0
    outer loop
      vertex 10.6 0 -11
      vertex 10.6 -20 0
      vertex 10.6 -20 -11
    endloop
  endfacet
  facet normal -1 0 0
    outer loop
      vertex 8.79 -13.6 -9.1
      vertex 8.79 -6.4 -1.9
      vertex 8.79 -6.4 -9.1
    endloop
  endfacet
  facet normal -1 -0 0
    outer loop
      vertex 8.79 -6.4 -1.9
      vertex 8.79 -13.6 -9.1
      vertex 8.79 -13.6 -1.9
    endloop
  endfacet
  facet normal 0 0 -1
    outer loop
      vertex 6.6 -13.6 -1.9
      vertex 8.79 -6.4 -1.9
      vertex 8.79 -13.6 -1.9
    endloop
  endfacet
  facet normal -0 0 -1
    outer loop
      vertex 8.79 -6.4 -1.9
      vertex 6.6 -13.6 -1.9
      vertex 6.6 -6.4 -1.9
    endloop
  endfacet
  facet normal 0 0 1
    outer loop
      vertex 8.79 -6.4 -9.1
      vertex 8.4 -11.627 -9.1
      vertex 8.79 -13.6 -9.1
    endloop
  endfacet
  facet normal 0 0 1
    outer loop
      vertex 8.79 -6.4 -9.1
      vertex 8.31855 -11.5515 -9.1
      vertex 8.4 -11.627 -9.1
    endloop
  endfacet
  facet normal 0 0 1
    outer loop
      vertex 8.79 -6.4 -9.1
      vertex 7.89832 -11.1824 -9.1
      vertex 8.31855 -11.5515 -9.1
    endloop
  endfacet
  facet normal 0 0 1
    outer loop
      vertex 8.79 -6.4 -9.1
      vertex 7.41814 -10.7608 -9.1
      vertex 7.89832 -11.1824 -9.1
    endloop
  endfacet
  facet normal 0 0 1
    outer loop
      vertex 6.6 -10.0671 -9.1
      vertex 8.79 -6.4 -9.1
      vertex 6.6 -6.4 -9.1
    endloop
  endfacet
  facet normal 0 0 1
    outer loop
      vertex 8.79 -6.4 -9.1
      vertex 6.6 -10.0671 -9.1
      vertex 7.41814 -10.7608 -9.1
    endloop
  endfacet
  facet normal 0 0 1
    outer loop
      vertex 8.79 -13.6 -9.1
      vertex 8.4 -11.627 -9.1
      vertex 8.4 -13.6 -9.1
    endloop
  endfacet
  facet normal 0 -1 0
    outer loop
      vertex 6.6 -6.4 -9.1
      vertex 8.79 -6.4 -1.9
      vertex 6.6 -6.4 -1.9
    endloop
  endfacet
  facet normal 0 -1 -0
    outer loop
      vertex 8.79 -6.4 -1.9
      vertex 6.6 -6.4 -9.1
      vertex 8.79 -6.4 -9.1
    endloop
  endfacet
  facet normal 0 1 0
    outer loop
      vertex 8.79 -13.6 -1.9
      vertex 6.6 -13.6 -5.56712
      vertex 6.6 -13.6 -1.9
    endloop
  endfacet
  facet normal 0 1 0
    outer loop
      vertex 8.79 -13.6 -1.9
      vertex 7.41814 -13.6 -6.26078
      vertex 6.6 -13.6 -5.56712
    endloop
  endfacet
  facet normal 0 1 0
    outer loop
      vertex 8.79 -13.6 -1.9
      vertex 7.89832 -13.6 -6.68245
      vertex 7.41814 -13.6 -6.26078
    endloop
  endfacet
  facet normal 0 1 0
    outer loop
      vertex 8.79 -13.6 -1.9
      vertex 8.31855 -13.6 -7.05147
      vertex 7.89832 -13.6 -6.68245
    endloop
  endfacet
  facet normal 0 1 0
    outer loop
      vertex 8.79 -13.6 -1.9
      vertex 8.4 -13.6 -7.12699
      vertex 8.31855 -13.6 -7.05147
    endloop
  endfacet
  facet normal 0 1 -0
    outer loop
      vertex 8.79 -13.6 -9.1
      vertex 8.4 -13.6 -7.12699
      vertex 8.79 -13.6 -1.9
    endloop
  endfacet
  facet normal 0 1 0
    outer loop
      vertex 8.4 -13.6 -7.12699
      vertex 8.79 -13.6 -9.1
      vertex 8.4 -13.6 -9.1
    endloop
  endfacet
endsolid OpenSCAD_Model
